<?xml version="1.0" encoding="utf-8"?>
<!-- Generator: Adobe Illustrator 24.0.0, SVG Export Plug-In . SVG Version: 6.00 Build 0)  -->
<svg version="1.1" id="Capa_1" xmlns="http://www.w3.org/2000/svg" xmlns:xlink="http://www.w3.org/1999/xlink" x="0px" y="0px"
	 viewBox="0 0 100 100" style="enable-background:new 0 0 100 100;" xml:space="preserve">
<style type="text/css">
	.st0{fill:#343434;}
	.st1{fill:#4E4D4D;}
	.st2{fill:#202020;}
	.st3{fill:#676767;}
	.st4{fill:#EF8125;}
	.st5{fill:#EF7C2A;}
	.st6{fill:#F39553;}
	.st7{fill:#FFD976;}
</style>
<g>
	<title></title>
	<g id="_20_Graduation_1_">
		<path class="st0" d="M16.6,40.6v27c0,1.9,0.8,3.7,2.1,5c17.9,16.9,44.8,16.9,62.6,0c1.3-1.3,2.1-3.1,2.1-5v-27H16.6z"/>
		<path class="st1" d="M18.5,46.6h65v-6H16.6v27c0,2,0.8,3.8,1.9,5.1V46.6z"/>
		<path class="st2" d="M16.6,40.6V49l36.5,19.8c1.2,0.7,2.7,0.7,4,0l18.9-10.2c1.3-0.7,2.9-0.1,3.6,1.3c0.2,0.4,0.3,0.8,0.3,1.3v6.5
			c0,0-0.1,3.7-1.4,5C70.1,80.5,59.6,85,48.6,85.3c12,0.4,23.7-4.2,32.7-12.7c1.3-1.3,2.1-3.1,2.2-5v-27H16.6z"/>
		<path class="st1" d="M48,14.3L1.2,39.5c-1.1,0.6-1.5,2-1,3.2c0.2,0.5,0.6,0.8,1,1L48,68.8c1.2,0.7,2.7,0.7,3.9,0l46.8-25.1
			c1.1-0.6,1.5-2,1-3.2c-0.2-0.5-0.6-0.8-1-1L52,14.3C50.7,13.7,49.3,13.7,48,14.3z"/>
		<path class="st3" d="M4.7,43.7c-1.1-0.6-1.6-2.1-1-3.3c0.2-0.5,0.6-0.9,1-1.1c0,0,44.5-25.7,43.3-25.1L1.2,39.5
			c-1.1,0.6-1.5,2-1,3.2c0.2,0.5,0.6,0.8,1,1L48,68.8C49.2,69.4,4.7,43.7,4.7,43.7z"/>
		<path class="st0" d="M95.3,43.7c1.1-0.6,1.6-2.1,1-3.3c-0.2-0.5-0.6-0.9-1-1.1c0,0-44.5-25.7-43.3-25.1l46.8,25.1
			c1.1,0.6,1.5,2,1,3.2c-0.2,0.5-0.6,0.8-1,1L52,68.8C50.8,69.4,95.3,43.7,95.3,43.7z"/>
		<path class="st2" d="M25.9,78.4c0.6,0.4,1.2,0.8,1.9,1.1V57.6l-1.9-0.8V78.4z"/>
		<path class="st2" d="M24.7,71.1c-1.9,0-3.5,1.4-4,3.3c2.1,1.8,4.3,3.3,6.6,4.7c1.8-1.5,2.1-4.3,0.7-6.3
			C27.1,71.7,26,71.1,24.7,71.1z"/>
		<path class="st4" d="M22.2,85.3V55.7c-0.6-0.8-0.2-1.6,0.5-2l26.4-14.2c1-0.6,2.3-0.1,2.8,1c0.5,1.1,0.1,2.4-0.9,3l-25,13.5v28.3
			c-0.2,1.2-1.1,2.2-2.3,2.2C22.5,87.6,21.6,86.6,22.2,85.3z"/>
		<path class="st5" d="M51.1,39.7c0.7,1,0.4,2.4-0.5,3.1c-0.1,0.1-0.2,0.1-0.3,0.2L25.5,56.3c-0.4,0.2-0.6,0.6,0.4,1v27.4
			C25.1,86,24.2,87,23,87c-0.4,0-0.8-0.1-1.1-0.3c0.7,1,2,1.2,2.9,0.5c0.6-0.4,0.9-1.2,1.1-1.9V57.1l24.9-13.4
			c1.1-0.5,1.6-1.8,1.2-2.9C51.8,40.3,51.5,39.9,51.1,39.7z"/>
		<path class="st5" d="M22.2,78.3c0.5,1,2.1,1.3,3.7,0.7v-8.3c-1.6-0.6-3.2-0.3-3.7,0.7V78.3z"/>
		<ellipse class="st4" cx="23.6" cy="74.4" rx="4.2" ry="4.5"/>
		<path class="st6" d="M26.5,71.2c3.6,4.2-2,10.1-5.9,6.3c1.5,1.9,4.1,2.1,5.9,0.5c1.7-1.6,2-4.4,0.5-6.3
			C26.8,71.5,26.6,71.3,26.5,71.2z"/>
		<path class="st7" d="M26.7,71.4c-1.4-1.9-4.1-2.2-5.9-0.7c-1.8,1.6-2.1,4.4-0.6,6.3c0.2,0.2,0.4,0.5,0.6,0.7
			C17.2,73.5,22.8,67.5,26.7,71.4z"/>
		<polygon class="st0" points="50.9,43.5 27.5,57.8 25.7,57.1 		"/>
	</g>
</g>
</svg>
