<?xml version="1.0" encoding="utf-8"?>
<!-- Generator: Adobe Illustrator 24.0.0, SVG Export Plug-In . SVG Version: 6.00 Build 0)  -->
<svg version="1.1" id="Capa_1" xmlns="http://www.w3.org/2000/svg" xmlns:xlink="http://www.w3.org/1999/xlink" x="0px" y="0px"
	 viewBox="0 0 100 100" style="enable-background:new 0 0 100 100;" xml:space="preserve">
<style type="text/css">
	.st0{fill:#145962;}
</style>
<g>
	<path class="st0" d="M95.3,6.1H4.7c-2.3,0-4.1,1.8-4.1,4.1v48.7c0,2.3,1.8,4.1,4.1,4.1h90.6c2.3,0,4.1-1.8,4.1-4.1V10.2
		C99.4,7.9,97.6,6.1,95.3,6.1z M11,42.9c-0.8,0-1.6,0-2,0.4V26.2c0.4,0.4,1.2,0.4,2,0.4c5.6,0,10.1-4.5,10.1-10.2c0-0.8,0-1.6-0.4-2
		h57c0,0.4,0,1.2,0,2.1c0,5.7,4.3,10.3,9.8,10.3c0.8,0,1.6,0,2-0.4v16.5c-0.4,0-1.2-0.4-2-0.4c-5.6,0-10.1,4.5-10.1,10.2
		c0,0.8,0,1.6,0.4,2H20.6c0.4,0,0.4-0.8,0.4-1.6C21,47.4,16.6,42.9,11,42.9z M37,34.3c0-7,5.3-12.3,12.3-12.3s12.3,5.3,12.3,12.3
		s-5.3,12.3-12.3,12.3S37,41.2,37,34.3z M8.9,75.7v-4.3H91v4.3c0,2.3-1.8,4.1-4.1,4.1H13C10.8,79.8,8.9,78,8.9,75.7z M17.3,92.4
		v-4.3h62v4.3c0,2.3-1.8,4.1-4.1,4.1H21.4C19.2,96.5,17.3,94.7,17.3,92.4z"/>
</g>
</svg>
