<?xml version="1.0" encoding="utf-8"?>
<!-- Generator: Adobe Illustrator 24.0.0, SVG Export Plug-In . SVG Version: 6.00 Build 0)  -->
<svg version="1.1" id="Capa_1" xmlns="http://www.w3.org/2000/svg" xmlns:xlink="http://www.w3.org/1999/xlink" x="0px" y="0px"
	 viewBox="0 0 100 100" style="enable-background:new 0 0 100 100;" xml:space="preserve">
<style type="text/css">
	.st0{fill:#522F52;}
</style>
<g>
	<path class="st0" d="M91.5,14.6L91.5,14.6c-11.8-11.8-30-11.8-41.4,0l0,0l0,0c-11.4-11.4-30-11.4-41.4,0c-11,11-11.8,28-1.6,39.8
		c5.3,6.1,10.5,11.4,16.2,16.6c2.4-1.2,5.7-2.4,8.5-4.1l0,0c0,0,12.2-5.3,19.9-16.6C42,57.1,32.7,60,28.6,60.8
		c-1.6-6.1-0.4-12.6,4.1-17c6.1-6.1,23.5-7.7,29.6-17.4c0.8-1.2,2.4-1.2,3.2,0c2.8,6.5,7.7,21.9-2.8,37.7c-5.3,8.1-17,11.8-25.6,7.3
		c-2.8,2-5.7,4.1-7.7,5.3c6.5,5.7,13.4,11,20.7,15.8c16.6-10.5,30.8-23.5,43.4-38.1C102.9,42.5,102,25.5,91.5,14.6z"/>
</g>
</svg>
