<?xml version="1.0" encoding="utf-8"?>
<!-- Generator: Adobe Illustrator 24.0.0, SVG Export Plug-In . SVG Version: 6.00 Build 0)  -->
<svg version="1.1" id="Capa_1" xmlns="http://www.w3.org/2000/svg" xmlns:xlink="http://www.w3.org/1999/xlink" x="0px" y="0px"
	 viewBox="0 0 100 100" style="enable-background:new 0 0 100 100;" xml:space="preserve">
<style type="text/css">
	.st0{fill:#88CABF;}
</style>
<g>
	<title>002 - Social Care</title>
	<desc>Created with Sketch.</desc>
	<g>
		<g>
			<path class="st0" d="M64.9,0.8c-5.4,0-9.7,4.4-9.7,9.7s4.4,9.7,9.7,9.7c5.4,0,9.7-4.4,9.7-9.7C74.7,5.1,70.3,0.8,64.9,0.8z
				 M71.1,22.2c-3.8,2-8.4,2.1-12.3,0c-1.8,1.1-3.5,2.4-5.1,3.9c3.8,1.2,6.7,4.2,7.9,7.9c1.2,3.8,0.6,7.9-1.7,11.1
				c2.6,2.5,6.9,8.1,7.5,18.3c0.4-0.1,0.7-0.3,1-0.4c2.9-1.2,5.6-2.8,8-4.8c1.3-9.9-3.5-21.2-3.5-21.4c-0.2-0.6-0.2-1.3,0.2-1.8
				c0.4-0.5,1-0.8,1.6-0.7s1.2,0.5,1.4,1.1c2.6,6.3,4,13.1,4,20c2.1-1,4.6-1.1,6.8-0.1C87.8,33.3,74.5,24.2,71.1,22.2z M58,47.3
				c-4.7,3.5-11.4,3.5-16.1,0c-2.3,2.1-6.8,7.5-6.9,18.1c0.5,0.5,1,1,1.5,1.5c0.5,0.6,0.9,1.2,1.3,1.8c0.8-4,2.5-7.8,5.1-11.1
				c0.4-0.5,1.1-0.7,1.8-0.6c0.7,0.1,1.2,0.5,1.5,1.1c0.2,0.6,0.1,1.3-0.3,1.8c-5.1,5.9-5.2,16.5-5.2,16.6c0,0.1,0,0.2-0.1,0.4
				c0.1,0.5,0.1,1.1,0.1,1.7v3.3c1.3,0,2.6,0.7,3.2,1.8h12.3c0.7-1.1,1.9-1.8,3.2-1.8v-3.3c0-0.6,0-1.1,0.1-1.7
				c0-0.1-0.1-0.2-0.1-0.4c0-0.1-0.1-10.7-5.2-16.6c-0.7-0.8-0.5-1.9,0.3-2.5c0.8-0.6,2-0.5,2.6,0.2c2.6,3.3,4.3,7.1,5.1,11.1
				c0.4-0.6,0.8-1.2,1.3-1.8c0.5-0.5,1-1.1,1.5-1.5C64.9,54.8,60.4,49.4,58,47.3z M49.9,29.1c-4.9,0-8.9,4-8.9,8.9s4,8.9,8.9,8.9
				s8.9-4,8.9-8.9C58.7,33.1,54.7,29.1,49.9,29.1z M34.8,0.8c-5.4,0-9.7,4.4-9.7,9.7s4.4,9.7,9.7,9.7s9.7-4.4,9.7-9.7
				C44.5,5.1,40.2,0.8,34.8,0.8z M46,26.2c-1.6-1.5-3.2-2.8-5.1-3.9c-3.8,2-8.5,2.1-12.3,0c-3.5,2-16.6,11.1-16,33.1
				c2.1-0.9,4.6-0.9,6.7,0.1c0.1-6.9,1.4-13.6,4-20c0.2-0.6,0.8-1,1.4-1.1c0.6-0.1,1.2,0.2,1.6,0.7c0.4,0.5,0.5,1.2,0.2,1.8
				c-0.1,0.1-4.8,11.5-3.5,21.4c2.4,2,5.1,3.6,8,4.8c0.4,0.1,0.7,0.3,1,0.4c0.7-10.2,4.9-15.8,7.5-18.3c-2.3-3.2-3-7.3-1.7-11.1
				S42.3,27.4,46,26.2z M35.2,68.5c-1.1-1.4-2.6-2.5-4.3-3.2c-3.5-1.4-6.7-3.3-9.6-5.7c-0.1-0.1-0.2-0.1-0.2-0.2
				c-0.5-0.4-1-0.8-1.5-1.2c-1.7-1.4-4-1.4-5.7-0.1c0.6,1,1.4,1.9,2.2,2.7l8.1,8.1c0.3,0.3,0.5,0.8,0.5,1.2c0,0.5-0.2,0.9-0.5,1.2
				c-0.3,0.3-0.8,0.5-1.2,0.5s-0.9-0.2-1.2-0.5l-8.1-8.1c-1.9-1.9-3.4-4.1-4.5-6.6l-4-9.2c-0.3-0.8-1.1-1.3-1.9-1.3
				c-0.7,0-1.4,0.4-1.8,1c-0.4,0.6-0.4,1.4-0.1,2l6.9,15.3c0.8,1.7,1.8,3.2,3.1,4.5l12.3,12.3h14.7v-3.3
				C38.3,74.5,37.2,71.2,35.2,68.5z M21.8,85.9V100h18.8V85.9H21.8z M37.5,95.3h-1.8c-1-0.6-1.8-1.4-1.8-2.4s0.8-1.8,1.8-2.3h1.8
				c1,0.5,1.8,1.3,1.8,2.3S38.4,94.7,37.5,95.3z M59.4,85.9V100h18.8V85.9H59.4z M64,95.3h-1.8c-1-0.6-1.8-1.4-1.8-2.4
				s0.8-1.8,1.8-2.3H64c1,0.5,1.8,1.3,1.8,2.3S65,94.7,64,95.3z M98.6,47.1c-0.4-0.6-1.1-1-1.8-1c-0.8,0-1.6,0.5-1.9,1.3l-4,9.2
				c-1.1,2.5-2.6,4.7-4.5,6.6l-8.1,8.1c-0.3,0.3-0.8,0.5-1.2,0.5c-0.5,0-0.9-0.2-1.2-0.5c-0.3-0.3-0.5-0.8-0.5-1.2
				c0-0.5,0.2-0.9,0.5-1.2l8.1-8.1c0.8-0.8,1.6-1.7,2.2-2.7c-1.7-1.3-4.1-1.3-5.7,0.1c-0.5,0.4-1,0.9-1.5,1.2
				c-0.1,0.1-0.2,0.1-0.2,0.2c-2.9,2.4-6.1,4.4-9.6,5.7c-1.7,0.6-3.2,1.7-4.3,3.2c-2.1,2.7-3.2,6-3.1,9.4v3.3h14.7l12.3-12.3
				c1.3-1.3,2.4-2.8,3.1-4.5l6.9-15.3C99,48.5,99,47.7,98.6,47.1z"/>
		</g>
	</g>
</g>
</svg>
