<?xml version="1.0" encoding="utf-8"?>
<!-- Generator: Adobe Illustrator 24.0.0, SVG Export Plug-In . SVG Version: 6.00 Build 0)  -->
<svg version="1.1" id="Capa_1" xmlns="http://www.w3.org/2000/svg" xmlns:xlink="http://www.w3.org/1999/xlink" x="0px" y="0px"
	 viewBox="0 0 100 100" style="enable-background:new 0 0 100 100;" xml:space="preserve">
<style type="text/css">
	.st0{fill:#F18B6F;}
	.st1{fill-rule:evenodd;clip-rule:evenodd;fill:#F18B6F;}
</style>
<g>
	<g>
		<g>
			<g>
				<ellipse class="st0" cx="66.6" cy="13.1" rx="8.8" ry="8.8"/>
				<path class="st0" d="M49.1,60C49.1,60,49.1,60,49.1,60c0,0,3.1-2.1,3-3.8c0-0.8,0-1.6,0-2.4c0-9.6,2.1-15.3,4.5-18.6v12v7.4
					v34.7c-0.5,2.7,1.7,4.8,4.4,4.8c2.7,0,4.8-2.2,4.6-4.8V57.8h2.2l0,31.7c0,2.1,1.3,4.2,3.4,4.7c2.9,0.7,5.6-1.6,5.6-4.7v-4.8
					h-6.3c-1.5,0-2.6-1.2-2.6-2.6V62.7c0-1.5,1.2-2.6,2.6-2.6h6.3V47.2c0.5-0.2,0.5-0.5,2.2-0.7V35.3c-1.8,0-1.7,0.1-1.7,0.1
					c1.9,3.4,3.9,9.1,3.9,18.4c0,0.8,0,1.5,0,2.4c0,0.4,0,0.7,0.1,1c-1.4,0.9-2.4,2.4-2.6,4.2c0,0.2,0,0.4,0,0.7c0,0.1,0,0.3,0,0.3
					h-1h-5.8c-1,0-1.8,0.8-1.8,1.8v18.9c0,1,0.8,1.8,1.8,1.8h5.8h19.8c1,0,1.8-0.8,1.8-1.8V64c0-1-0.8-1.8-1.8-1.8h-6.9
					c0-0.1,0-0.1,0-0.2c0-0.2,0-0.4,0-0.6c-0.2-1.7-1.2-3.2-2.6-4.1c0.1-0.2,0.1-0.4,0.1-0.7c0-0.8,0-1.7,0-2.5
					c0-10.5-2.4-17.3-5-21.5c-2.6-4.2-5.4-5.7-5.8-5.9c-0.4-0.2-0.8-0.3-1.2-0.3c-0.2-0.1-0.5-0.1-0.7-0.1H58.9
					c-0.2,0-0.5,0-0.7,0.1c-0.4,0-0.9,0.1-1.3,0.3c-0.4,0.2-3.2,1.7-5.8,6C48.4,37.1,46,43.9,46,54.6c0,0.8,0,1.6,0,2.5
					C46.1,58.7,47.4,60,49.1,60z M88.7,61.4c0,0.2,0.1,0.4,0.1,0.7c0,0.1,0,0.1,0,0.2h-8.8c0-0.1,0-0.1,0-0.2c0-0.2,0-0.4,0.1-0.7
					c0.2-1.2,0.9-2.3,1.9-3c0.5,0.6,1.3,1,2.2,1.1c0,0,0.1,0,0.1,0c1,0,1.8-0.4,2.4-1.1C87.7,59,88.5,60.1,88.7,61.4z M66.6,52.2
					l-0.9-1.1l-2.8-3.5l0.6-4.4l1.5-11.4c0.5,0.2,1,0.3,1.6,0.3h0c0,0,0,0,0,0c0.5,0,1.1-0.1,1.6-0.3l1.5,11.4l0.6,4.3L67.6,51
					L66.6,52.2z M65.1,26.4h1.5h1.5l0.7,2.9l-0.1,0.2c-0.6,0.5-1.4,0.8-2.1,0.8c-0.8,0-1.5-0.3-2.1-0.8l-0.1-0.2L65.1,26.4z"/>
			</g>
		</g>
	</g>
	<g>
		<g>
			<g>
				<g>
					<path class="st1" d="M19.5,6.2c4.8,0,8.7,3.8,8.7,8.6c0,4.7-3.9,8.6-8.7,8.6c-4.7,0-8.6-3.9-8.6-8.6C10.8,10,14.8,6.2,19.5,6.2
						z"/>
					<path class="st1" d="M14,24.7v-0.3c-4.2,1-6.5,2.1-8.1,6.1c-1.7,3.2-4.7,21.4-4.7,21.4C0.5,55.4,4,56.7,4.8,53l4.8-19.3
						c1.2,6.2,3.7,9.5,2.4,15.1c-0.7,0.1-1,1.3-1,2.7l-8.6,18h9l-1.3,21.8c-0.2,5.4,4.2,5.7,4.5,0.6l3.3-22.4h1.4h0.1h0.1h0.1h1.4
						L24.4,92c0.2,5.2,4.7,4.8,4.3-0.6l-1.2-21.8h9l-8.6-18c0-1.3-0.2-2.6-1-2.7c-1.3-5.6,1.2-9,2.4-15.1L34.3,53
						c0.7,3.7,4.2,2.4,3.5-1.2c0,0-3-18.2-4.7-21.4c-1.7-3.9-3.9-5-8.1-6.1v0.3 M25,25.7v0.2 M14,25.9v-0.2 M19.4,50.5l-0.9-1.1
						l-2.8-3.5l0.6-4.4l1.5-11.4c0.5,0.2,1,0.3,1.6,0.3h0c0,0,0,0,0,0c0.5,0,1.1-0.1,1.6-0.3l1.5,11.4l0.6,4.3l-2.8,3.5L19.4,50.5
						 M18,24.7h1.5h1.5l0.7,2.9l-0.1,0.2c-0.6,0.5-1.4,0.8-2.1,0.8c-0.8,0-1.5-0.3-2.1-0.8l-0.1-0.2L18,24.7z"/>
					<path class="st1" d="M15.1,28.3"/>
				</g>
			</g>
			<path class="st1" d="M4.9,80.2H1.3c-0.2,0-0.4-0.2-0.4-0.4l0-21.6c0-0.2,0.2-0.4,0.4-0.4h3.6c0.2,0,0.4,0.2,0.4,0.4l0,21.6
				C5.3,80,5.2,80.2,4.9,80.2z"/>
			<path class="st1" d="M4,60H2.2C2.1,60,2,59.9,2,59.8l0-4.1c0-0.1,0.1-0.2,0.2-0.2H4c0.1,0,0.2,0.1,0.2,0.2l0,4.1
				C4.2,59.9,4.1,60,4,60z"/>
		</g>
	</g>
</g>
</svg>
