<?xml version="1.0" encoding="utf-8"?>
<!-- Generator: Adobe Illustrator 21.0.0, SVG Export Plug-In . SVG Version: 6.00 Build 0)  -->
<svg version="1.1" id="Mona" xmlns="http://www.w3.org/2000/svg" xmlns:xlink="http://www.w3.org/1999/xlink" x="0px" y="0px"
	 viewBox="0 0 1080 1080" style="enable-background:new 0 0 1080 1080;" xml:space="preserve">
<style type="text/css">
	.st0{fill:#CDCBCA;}
	.st1{fill:#2EC6BB;}
	.st2{fill:#3A696F;}
	.st3{fill:#CAD2F0;}
	.st4{clip-path:url(#SVGID_2_);fill:#3A696F;}
	.st5{fill:#FFB8BE;}
	.st6{opacity:0.3;}
	.st7{fill:#000072;}
	.st8{fill:#FAB240;}
	.st9{clip-path:url(#SVGID_4_);fill:#F57447;}
	.st10{fill:#E8E6E8;}
	.st11{fill:#F57447;}
	.st12{clip-path:url(#SVGID_6_);fill:#FFFFFF;}
	.st13{clip-path:url(#SVGID_6_);fill:#F57447;}
	
		.st14{clip-path:url(#SVGID_6_);fill:none;stroke:#F57447;stroke-width:2.692;stroke-linecap:round;stroke-linejoin:round;stroke-miterlimit:10;}
	.st15{clip-path:url(#SVGID_8_);fill:none;stroke:#02232B;stroke-width:2.692;stroke-miterlimit:10;}
	.st16{fill:#F8585C;}
	.st17{fill:#F8245C;}
	.st18{fill:#008973;}
	.st19{fill:#07C4A1;}
	.st20{fill:#134A51;}
	.st21{fill:#FDE9CE;}
	.st22{fill:#3C61A3;}
	.st23{fill:#216EF0;}
	.st24{fill:#E89071;}
	.st25{fill:#FFFFFF;}
	.st26{fill:#F79878;}
	.st27{fill:#151119;}
	.st28{fill:#FF6F5B;}
	.st29{fill:#D3AE81;}
	.st30{fill:#FFCA6A;}
	.st31{fill:#292130;}
	.st32{clip-path:url(#SVGID_10_);fill:url(#SVGID_11_);}
	.st33{clip-path:url(#SVGID_13_);fill:url(#SVGID_14_);}
	.st34{fill:#DAFFD4;}
	.st35{filter:url(#Adobe_OpacityMaskFilter);}
	.st36{clip-path:url(#SVGID_16_);fill:url(#SVGID_18_);}
	.st37{clip-path:url(#SVGID_16_);mask:url(#SVGID_17_);fill:url(#SVGID_19_);}
	.st38{fill:#727272;}
	.st39{fill:#404042;}
	.st40{fill:#4F4F4F;}
	.st41{fill:#282828;}
	.st42{fill:#FEF4DB;}
</style>
<g>
	<g>
		<path class="st0" d="M66.4,636.8h494.9c12.1,0,21.8-9.8,21.8-21.8V255.3c0-12.1-9.8-21.8-21.8-21.8H66.4
			c-12.1,0-21.8,9.8-21.8,21.8V615C44.6,627.1,54.4,636.8,66.4,636.8"/>
		<path class="st1" d="M74.8,606.9h454c13.5,0,24.5-11,24.5-24.5V312c0-28.1-22.7-50.8-50.8-50.8H74.8V606.9z"/>
		<path class="st2" d="M530.1,606.9L530.1,606.9c12.8,0,23.2-10.4,23.2-23.2V284.3c0-12.8-10.4-23.2-23.2-23.2h0V606.9z"/>
		<polygon class="st3" points="322.1,260.7 529.1,539.6 529.1,564.5 305,260.9 		"/>
		<polygon class="st3" points="392.4,261.3 530.2,448 530.2,507.7 351.3,261.3 		"/>
		<g>
			<defs>
				<rect id="SVGID_1_" x="75" y="383.1" width="455.4" height="223.9"/>
			</defs>
			<clipPath id="SVGID_2_">
				<use xlink:href="#SVGID_1_"  style="overflow:visible;"/>
			</clipPath>
			<polygon class="st4" points="75,413.3 112.1,413.3 112.1,501.3 135.1,501.3 135.1,471.2 167.8,471.2 167.8,509.6 214.5,509.6 
				214.5,435.3 240.8,435.3 240.8,504.7 287,504.7 287,457.1 323.4,457.1 323.4,383.1 363.2,383.1 363.2,483.7 408.4,483.7 
				408.4,502 448.5,502 448.5,458 509.3,458 509.3,507.4 530.4,507.4 530.4,606.9 75,606.9 			"/>
		</g>
		<rect x="74.3" y="521.6" class="st0" width="456.7" height="8.9"/>
		<rect x="74.3" y="529.8" class="st2" width="456.7" height="6.9"/>
	</g>
	<g>
		<g>
			<path class="st5" d="M711.5,922.2c80.5,0,126.3-17.9,143.6-26.4c5.2-2.6,11.1-3.3,16.8-2c6,1.3,10.7,1.6,14.3,1.4
				c6.1-0.4,11.1-4.7,12.3-10.7c2-9.9-1.5-18.9-5.1-25c-3.6-6-4.4-13.2-2.6-19.9c17.8-65.8,2-134.4-4.1-156.6
				c-1.3-4.6-1.2-9.5,0.1-14.1c1.5-5.1,2.9-12.4,2-19.4c-0.9-7.3-8.1-12.1-15.2-10.2c-4.7,1.2-10.4,3.8-16.1,8.7
				c-3.4,3-8.2,3.8-12.4,2.1c-16.7-6.5-62.2-21.2-133.4-21.2S594.7,643.6,578,650.2c-4.2,1.7-9,0.8-12.4-2.1
				c-5.7-5-11.4-7.5-16.1-8.7c-7.1-1.9-14.3,2.9-15.2,10.2c-0.9,7,0.6,14.3,2,19.4c1.3,4.6,1.4,9.5,0.1,14.1
				c-6.1,22.2-21.9,90.8-4.1,156.6c1.8,6.7,0.9,13.9-2.6,19.9c-3.6,6.1-7.2,15.1-5.1,25c1.2,6,6.3,10.3,12.3,10.7
				c3.6,0.2,8.3-0.1,14.3-1.4c5.7-1.2,11.6-0.5,16.8,2C585.1,904.4,631,922.2,711.5,922.2z"/>
		</g>
		<g class="st6">
			<g>
				<path class="st7" d="M889.7,877.9c-3.6,0.2-8.3-0.1-14.3-1.4c-5.7-1.2-11.6-0.5-16.8,2c-17.3,8.5-63.1,26.4-143.6,26.4
					s-126.3-17.9-143.6-26.4c-5.2-2.6-11.1-3.3-16.8-2c-6,1.3-10.7,1.6-14.3,1.4c-6.1-0.4-11.1-4.7-12.3-10.7
					c-0.3-1.3-0.4-2.6-0.5-3.9c-2.7,5.8-4.7,13.1-3.1,21.2c1.2,6,6.3,10.3,12.3,10.7c3.6,0.2,8.3-0.1,14.3-1.4
					c5.7-1.2,11.6-0.5,16.8,2c17.3,8.5,63.1,26.4,143.6,26.4s126.3-17.9,143.6-26.4c5.2-2.6,11.1-3.3,16.8-2
					c6,1.3,10.7,1.6,14.3,1.4c6.1-0.4,11.1-4.7,12.3-10.7c0.8-3.8,0.7-7.4,0.2-10.8C896.4,876.1,893.2,877.7,889.7,877.9z"/>
			</g>
			<g>
				<path class="st7" d="M537.3,676.1c1-4.2,1.9-7.7,2.7-10.5c1.3-4.6,1.2-9.5-0.1-14.1c-0.7-2.6-1.5-5.9-1.9-9.3
					c-2,1.8-3.3,4.3-3.7,7.2c-0.9,7,0.6,14.3,2,19.4C536.9,671.2,537.3,673.7,537.3,676.1z"/>
			</g>
			<g>
				<path class="st7" d="M895.3,818.4c-0.3,1.3-0.6,2.5-1,3.8c-0.5,2-0.8,4-0.9,6C894.1,825,894.7,821.7,895.3,818.4z"/>
			</g>
			<g>
				<path class="st7" d="M532.9,842.7c0.1-0.2,0.2-0.4,0.3-0.6c3.6-6,4.4-13.2,2.6-19.9c-12.7-47.3-8.2-95.9-2.4-127.8
					c-6.9,29.3-16.6,88.2-1.2,145.1C532.5,840.6,532.7,841.6,532.9,842.7z"/>
			</g>
		</g>
		<g class="st6">
			
				<ellipse transform="matrix(0.1242 -0.9923 0.9923 0.1242 -156.3683 1393.8546)" class="st7" cx="711.4" cy="785.5" rx="108" ry="160.2"/>
		</g>
	</g>
	<g>
		<rect x="792.9" y="283.5" class="st8" width="106.6" height="139.1"/>
		<g>
			<defs>
				<rect id="SVGID_3_" x="792.9" y="283.5" width="106.6" height="139.1"/>
			</defs>
			<clipPath id="SVGID_4_">
				<use xlink:href="#SVGID_3_"  style="overflow:visible;"/>
			</clipPath>
			<path class="st9" d="M812.3,299.5L812.3,299.5c1,2.1,3,3.5,5.3,3.9c-1.7,1.6-2.4,4-2,6.3c-2.1-1.1-4.5-1.1-6.6,0
				c0.4-2.3-0.4-4.6-2-6.3C809.2,303,811.2,301.6,812.3,299.5"/>
			<path class="st9" d="M880.6,299.5L880.6,299.5c1,2.1,3,3.5,5.3,3.9c-1.7,1.6-2.4,4-2,6.3c-2.1-1.1-4.5-1.1-6.6,0
				c0.4-2.3-0.4-4.6-2-6.3C877.6,303,879.5,301.6,880.6,299.5"/>
			<path class="st9" d="M844.4,292L844.4,292c0.2,2.3,1.5,4.4,3.5,5.6c-2.2,0.9-3.7,2.8-4.2,5c-1.5-1.8-3.8-2.7-6.1-2.5
				c1.2-2,1.4-4.4,0.5-6.6C840.3,294.2,842.7,293.6,844.4,292"/>
			<path class="st9" d="M825.3,315.3L825.3,315.3c0.1,1.2,0.8,2.2,1.8,2.7c-1.1,0.5-1.8,1.4-2,2.6c-0.8-0.9-1.9-1.3-3.1-1.1
				c0.6-1,0.6-2.2,0.1-3.3C823.3,316.4,824.4,316.1,825.3,315.3"/>
			<path class="st9" d="M844,319.9L844,319.9c1.7,0.9,3.8,1,5.6,0.1c-0.4,2,0.3,4,1.7,5.4c-2,0.3-3.7,1.5-4.6,3.2
				c-0.9-1.8-2.5-3-4.5-3.4C843.6,323.9,844.3,321.9,844,319.9"/>
			<path class="st9" d="M862.9,306.9L862.9,306.9c0.7,0.9,1.9,1.4,3,1.3c-0.6,1-0.7,2.2-0.3,3.3c-1.1-0.3-2.3,0-3.2,0.7
				c-0.1-1.2-0.7-2.2-1.7-2.8C861.8,309,862.7,308.1,862.9,306.9"/>
			<path class="st9" d="M869.2,336L869.2,336c0.1,1.2,0.7,2.2,1.7,2.8c-1.1,0.4-1.9,1.4-2.2,2.5c-0.7-0.9-1.9-1.4-3-1.3
				c0.6-1,0.7-2.2,0.3-3.3C867.1,337,868.3,336.7,869.2,336"/>
			<path class="st9" d="M880.6,408.5L880.6,408.5c-1-2.1-3-3.5-5.3-3.9c1.7-1.6,2.4-4,2-6.3c2.1,1.1,4.5,1.1,6.6,0
				c-0.4,2.3,0.4,4.6,2,6.3C883.6,405,881.6,406.4,880.6,408.5"/>
			<path class="st9" d="M812.3,408.5L812.3,408.5c-1-2.1-3-3.5-5.3-3.9c1.7-1.6,2.4-4,2-6.3c2.1,1.1,4.5,1.1,6.6,0
				c-0.4,2.3,0.4,4.6,2,6.3C815.3,405,813.3,406.4,812.3,408.5"/>
			<path class="st9" d="M848.5,415.9L848.5,415.9c-0.2-2.3-1.5-4.4-3.5-5.6c2.2-0.9,3.7-2.8,4.2-5c1.5,1.8,3.8,2.7,6.1,2.5
				c-1.2,2-1.4,4.4-0.5,6.6C852.6,413.8,850.2,414.4,848.5,415.9"/>
			<path class="st9" d="M867.6,392.7L867.6,392.7c-0.1-1.2-0.8-2.2-1.8-2.7c1.1-0.5,1.8-1.4,2-2.6c0.8,0.9,1.9,1.3,3.1,1.1
				c-0.6,1-0.6,2.2-0.1,3.3C869.6,391.5,868.4,391.9,867.6,392.7"/>
			<path class="st9" d="M848.9,387.4L848.9,387.4c-1.7-0.9-3.8-1-5.6-0.1c0.4-2-0.3-4-1.7-5.4c2-0.3,3.7-1.5,4.6-3.2
				c0.9,1.8,2.5,3,4.5,3.4C849.2,383.4,848.6,385.4,848.9,387.4"/>
			<path class="st9" d="M879.5,380.4L879.5,380.4c1.4-1.9,1.7-4.3,0.9-6.5c2.2,0.7,4.6,0.3,6.5-1.2c0,2.3,1.2,4.5,3.1,5.8
				c-2.2,0.7-3.9,2.5-4.6,4.7C884,381.4,881.8,380.4,879.5,380.4"/>
			<path class="st9" d="M876.9,349.4L876.9,349.4c1-0.7,1.5-1.7,1.5-2.9c0.9,0.7,2.1,0.9,3.2,0.6c-0.4,1.1-0.2,2.3,0.5,3.3
				c-1.2,0-2.3,0.5-3,1.4C878.8,350.7,878,349.8,876.9,349.4z"/>
			<path class="st9" d="M883.2,330.8L883.2,330.8c0-2-1-3.8-2.6-5c1.9-0.6,3.4-2.1,3.9-4c1.2,1.6,3,2.6,5,2.5
				c-1.2,1.6-1.5,3.7-0.8,5.5C886.9,329.2,884.8,329.6,883.2,330.8"/>
			<path class="st9" d="M829.9,401L829.9,401c-0.7-0.9-1.9-1.4-3-1.3c0.6-1,0.7-2.2,0.3-3.3c1.1,0.3,2.3,0,3.2-0.7
				c0.1,1.2,0.7,2.2,1.7,2.8C831,399,830.2,399.9,829.9,401"/>
			<path class="st9" d="M859.1,370.5L859.1,370.5c-0.1-1.2-0.7-2.2-1.7-2.8c1.1-0.4,1.9-1.4,2.2-2.5c0.7,0.9,1.9,1.4,3,1.3
				c-0.6,1-0.7,2.2-0.3,3.3C861.1,369.4,859.9,369.7,859.1,370.5"/>
			<path class="st9" d="M835.5,359.2c-6,3.9-14,2.2-17.9-3.8c-3.9-6-2.2-14,3.8-17.9c1-0.7,2.1-1.2,3.3-1.5
				c-3.5-0.3-7.1,0.5-10.3,2.6c-7.6,5-9.8,15.2-4.8,22.8c5,7.6,15.2,9.8,22.8,4.8c4.1-2.7,6.6-6.9,7.3-11.4
				C838.7,356.5,837.3,358,835.5,359.2"/>
		</g>
	</g>
	<ellipse class="st10" cx="699.3" cy="936.8" rx="336.1" ry="19.1"/>
	<g>
		<rect x="635.1" y="233.5" class="st11" width="124.9" height="147.3"/>
		<g>
			<defs>
				<rect id="SVGID_5_" x="635.1" y="233.5" width="124.9" height="147.3"/>
			</defs>
			<clipPath id="SVGID_6_">
				<use xlink:href="#SVGID_5_"  style="overflow:visible;"/>
			</clipPath>
			<path class="st12" d="M728.9,311.7c0,17.3-14,31.3-31.3,31.3c-17.3,0-31.3-14-31.3-31.3c0-17.3,14-31.3,31.3-31.3
				C714.8,280.3,728.9,294.3,728.9,311.7"/>
			<path class="st12" d="M682.5,283.5l-10-5c-3.2-1.6-7,1.2-6.3,4.8l2.7,13.7c0.7,3.6,5.3,4.8,7.7,2l7.3-8.7
				C685.7,288,685.1,284.7,682.5,283.5"/>
			<path class="st12" d="M714.9,283.5l10-5c3.2-1.6,7,1.2,6.3,4.8l-2.7,13.7c-0.7,3.6-5.3,4.8-7.7,2l-7.3-8.7
				C711.7,288,712.4,284.7,714.9,283.5"/>
			<path class="st13" d="M686.3,302.9c0,2-1.6,3.5-3.5,3.5c-2,0-3.5-1.6-3.5-3.5c0-2,1.6-3.5,3.5-3.5
				C684.7,299.4,686.3,301,686.3,302.9"/>
			<path class="st13" d="M716.7,302.9c0,2-1.6,3.5-3.5,3.5c-2,0-3.5-1.6-3.5-3.5c0-2,1.6-3.5,3.5-3.5
				C715.1,299.4,716.7,301,716.7,302.9"/>
			<path class="st13" d="M695.7,304.7h4.5c1,0,1.5,1.2,0.8,1.9l-2.2,2.4c-0.4,0.5-1.2,0.5-1.6,0l-2.2-2.4
				C694.3,305.8,694.8,304.7,695.7,304.7"/>
			<path class="st14" d="M688.7,312.1c0,0,1.1,3.7,4.7,3.7c5.3,0,4.5-7.4,4.5-7.4"/>
			<path class="st14" d="M707.3,312.1c0,0-1.1,3.7-4.7,3.7c-5.3,0-4.5-7.4-4.5-7.4"/>
		</g>
	</g>
	<g>
		<rect x="834.4" y="435.5" class="st8" width="65.1" height="97.2"/>
		<g>
			<defs>
				<rect id="SVGID_7_" x="834.4" y="435.5" width="65.1" height="97.2"/>
			</defs>
			<clipPath id="SVGID_8_">
				<use xlink:href="#SVGID_7_"  style="overflow:visible;"/>
			</clipPath>
			<circle class="st15" cx="866.9" cy="475" r="20.3"/>
			<circle class="st15" cx="858.9" cy="470.8" r="2.4"/>
			<circle class="st15" cx="876.6" cy="470.8" r="2.4"/>
			<path class="st15" d="M861.2,478.6c0,0,5.7,5.1,13,0"/>
			<path class="st15" d="M877.6,510.4h-21.3c-1,0-1.8-0.8-1.8-1.8c0-1,0.8-1.8,1.8-1.8h21.3c1,0,1.8,0.8,1.8,1.8
				C879.3,509.6,878.6,510.4,877.6,510.4z"/>
			<path class="st15" d="M868.9,518.6h-4c-1,0-1.8-0.8-1.8-1.8c0-1,0.8-1.8,1.8-1.8h4c1,0,1.8,0.8,1.8,1.8
				C870.7,517.8,869.9,518.6,868.9,518.6z"/>
		</g>
	</g>
	<g>
		<path class="st16" d="M417,858.2c4.1,27.1,11.2,71.9,12.8,72.5c59.4,20.6,83.2-1.6,83.2-1.6l9.4-52.8
			C462.7,886.9,429.3,867.7,417,858.2"/>
		<path class="st17" d="M416.2,853c0.2,1.6,0.5,3.4,0.8,5.2c12.3,9.5,45.7,28.8,105.5,18.1l5.6-31.2L416.2,853z"/>
		<path class="st17" d="M482.5,855.4c22-3.1,37.3-14.8,45.8-17.9c-2-5.4-10.3-17.3-46.2-20.3c-46.8-4-68.2,20.6-68.2,20.6s0,0,0,0.1
			C422.2,841.9,447.2,860.4,482.5,855.4"/>
		<path class="st18" d="M468.3,863L468.3,863c-1.3,0-2.3-1-2.3-2.3V759.8c0-1.3,1-2.3,2.3-2.3c1.3,0,2.3,1,2.3,2.3v100.8
			C470.6,861.9,469.6,863,468.3,863"/>
		<path class="st18" d="M468.9,810.1l-0.9-1.1c-0.6-0.7-0.5-1.7,0.2-2.2l36.5-30.4c0.7-0.6,1.7-0.5,2.2,0.2l0.9,1.1
			c0.6,0.7,0.5,1.7-0.2,2.2l-36.5,30.4C470.5,810.9,469.5,810.8,468.9,810.1"/>
		<path class="st18" d="M455.2,750.8c5.3,8.5,13.1,10.4,14.7,10.7L452.4,723C452.4,723,447.1,737.9,455.2,750.8"/>
		<path class="st19" d="M471.6,750c0-6.8-1.8-12.9-6.7-17.9c-0.8-0.8-10.9-8.6-12.4-9.1l-0.2,0l17.4,38.5c0.2,0,0.3,0.1,0.3,0.1
			C470.8,761.7,471.6,750.7,471.6,750"/>
		<path class="st18" d="M447.8,763.4c9.7,2.5,16.7-1.5,18-2.3l-39.2-16C426.7,745.1,433.1,759.5,447.8,763.4"/>
		<path class="st19" d="M459.2,751.5c-4.7-5-10.2-8.1-17.1-8.4c-1.1,0-13.9,1.3-15.3,1.9l-0.1,0.1l39.2,16c0.1-0.1,0.2-0.2,0.2-0.2
			C466.7,760.5,459.7,752,459.2,751.5"/>
		<path class="st18" d="M516.6,764.6c-8.5,5.3-10.4,13.1-10.7,14.7l38.5-17.5C544.4,761.8,529.5,756.6,516.6,764.6"/>
		<path class="st19" d="M517.5,781.1c6.8,0,12.9-1.8,17.8-6.7c0.8-0.8,8.6-10.9,9.1-12.4l0-0.2l-38.5,17.5c0,0.2-0.1,0.3-0.1,0.3
			C505.8,780.3,516.7,781.1,517.5,781.1"/>
		<path class="st18" d="M503.8,761.5c-2.9,9.6,0.9,16.7,1.7,18.1l17.3-38.6C522.8,741,508.2,746.9,503.8,761.5"/>
		<path class="st19" d="M515.3,773.3c5.1-4.5,8.5-9.9,9-16.8c0.1-1.1-0.8-13.9-1.4-15.3l-0.1-0.1l-17.3,38.6
			c0.1,0.2,0.2,0.3,0.2,0.3C506,780.4,514.8,773.7,515.3,773.3"/>
		<path class="st18" d="M498.5,792.7c-7.1-0.1-11.2,3.9-12,4.7l29.7,4.2C516.2,801.6,509.3,792.8,498.5,792.7"/>
		<path class="st19" d="M492.7,802.9c4.1,2.6,8.4,3.8,13.2,2.8c0.8-0.2,9.3-3.3,10.2-4l0.1-0.1l-29.7-4.2c-0.1,0.1-0.1,0.2-0.1,0.2
			C486,798,492.3,802.6,492.7,802.9"/>
		<path class="st18" d="M452.7,797.2c6.3,3.4,11.8,1.8,12.8,1.5L441.2,781C441.2,781,443.2,792,452.7,797.2"/>
		<path class="st19" d="M462.6,790.9c-2.4-4.2-5.6-7.3-10.4-8.7c-0.8-0.2-9.8-1.5-10.9-1.3l-0.1,0.1l24.3,17.7
			c0.1,0,0.2-0.1,0.2-0.1C466.2,798.4,462.8,791.3,462.6,790.9"/>
		<path class="st18" d="M466.4,744.6c-2.3,9.8,1.9,16.7,2.7,18l15-39.5C484.1,723,469.8,729.7,466.4,744.6"/>
		<path class="st19" d="M478.6,755.7c4.9-4.8,7.9-10.4,8-17.3c0-1.1-1.6-13.8-2.3-15.2l-0.1-0.1l-15,39.5c0.1,0.1,0.2,0.2,0.2,0.2
			C469.7,763.3,478.1,756.2,478.6,755.7"/>
		<path class="st20" d="M433.2,847.3c0,0,18.1-12.2,43-10.3c24.9,2,33.7,11.7,33.7,11.7l-39.3,11.9l-31.1-4.1L433.2,847.3z"/>
		<path class="st11" d="M416.3,857.8l-3.4-18.6c0,0-0.2-1.9,2.4-1.7S436,853,475.4,851c40.5-2,53.1-14.7,53.1-14.7s2.1,1.7,1.7,5.5
			c-0.5,3.8-3.2,12.8-3.2,12.8s-24.2,16.8-58.3,15.6C434.5,868.9,416.3,857.8,416.3,857.8"/>
	</g>
	<path class="st21" d="M786.6,732.6c0,0-2.8,63.2,8.1,86.6s-59.7,41.9-62.5,40.3c-2.7-1.6-86.4,11.3-86.4,11.3l-39.6-37
		c0,0,29.7-47.6,13.2-111.7c-16.5-64.1,44.6-35.1,44.6-35.1s74.1-0.8,76.3,0C742.7,687.8,786.6,732.6,786.6,732.6z"/>
	<path class="st22" d="M890.9,798.6c0,0-62-5.4-137.9,23.5c-75.9,28.8-46,86.1-46,86.1l71.5-11.7l121.9-73.7L890.9,798.6z"/>
	<g>
		<path class="st22" d="M519.8,798.6c0,0,62-5.4,137.9,23.5c75.9,28.8,46,86.1,46,86.1l-71.5-11.7l-121.9-73.7L519.8,798.6z"/>
		<path class="st23" d="M676.3,886.6l-13.6,33.7c0,0-108.1-23-160.1-65.6c0,0-37.8-45.5,17.1-56.1c0,0,32.5,3.5,82.1,43.7
			C650,881.3,676.3,886.6,676.3,886.6z"/>
		<path class="st24" d="M676.3,888.1l28.1,15.3c0,0,35,2.6,46.3-2.9c0,0,13.1,2.3,8.4,19.8c-4.7,17.4-24.4,14.5-24.4,14.5
			s-63.2-5.7-71.9-14.5L676.3,888.1z"/>
		<path class="st25" d="M750.7,900.5c0,0,37.6-19.3,48.5,7.7c10.9,27-27,41.6-60.6,26.8c0,0,19.9-0.1,21.5-17.7
			C761.7,899.8,750.7,900.5,750.7,900.5z"/>
	</g>
	<path class="st23" d="M734.4,886.6l13.6,33.7c0,0,108.1-23,160.1-65.6c0,0,37.8-45.5-17.1-56.1c0,0-32.5,3.5-82.1,43.7
		C760.7,881.3,734.4,886.6,734.4,886.6z"/>
	<path class="st26" d="M734.4,888.1l-28.1,15.3c0,0-35,2.6-46.3-2.9c0,0-13.1,2.3-8.4,19.8c4.7,17.4,24.4,14.5,24.4,14.5
		s63.2-5.7,71.9-14.5L734.4,888.1z"/>
	<path class="st25" d="M660,900.5c0,0-37.6-19.3-48.5,7.7c-10.9,27,27,41.6,60.6,26.8c0,0-19.9-0.1-21.5-17.7
		C649,899.8,660,900.5,660,900.5z"/>
	<g>
		<path class="st27" d="M737.5,373.4c30.3,5.8,85.9,41.9,81.2,170.2c-2.6,71.3-32.5,93.5-32.5,93.5l-3.5-24.2
			c0,0-2.4,22.9-21.4,33.6c-1.8-11.4-6.6-18.2-6.6-18.2l-22.7,23.9l-17.7-21.5l-26.2,16.9l-7.2-19l-15.8,21.2l-15.6-24.4L635,646.5
			c0,0-34.7-32.8-32.5-105.9c2.2-73.1,115.1-151.5,115.1-151.5L737.5,373.4z"/>
		<path class="st27" d="M676.7,373.4c-30.3,5.8-85.8,42.7-80.8,174.3c2.8,73.2,32.7,95.9,32.7,95.9l3.4-24.8c0,0,2.5,23.5,21.5,34.5
			c1.8-11.7,6.5-18.7,6.5-18.7l22.8,24.6l17.7-22l26.2,17.4l7.1-19.5l15.9,21.7l15.5-25l14.7,21.9c0,0,34.6-33.5,32.2-108.5
			c-2.4-75-115.5-155.7-115.5-155.7L676.7,373.4z"/>
		<path class="st21" d="M561.5,714.8l34.9-89c6.8-21.1,27.4-35.5,50.8-35.5h108c22.3,0,42.2,13.1,49.8,32.9l41.1,93.5L561.5,714.8z"
			/>
		<path class="st28" d="M717.6,612.8l-24.1-0.4c-8-0.1-14.4-6.8-14.2-14.8l0.4-14.3l52.8,1l-0.3,14.3
			C732.1,606.6,725.6,612.9,717.6,612.8"/>
		<g>
			<path class="st29" d="M784.4,699.1c-1.2,0-2.2-0.8-2.5-2l-13.7-57.6c-0.3-1.4,0.5-2.8,1.9-3.1c1.4-0.3,2.8,0.5,3.1,1.9l13.7,57.6
				c0.3,1.4-0.5,2.8-1.9,3.1C784.8,699,784.6,699.1,784.4,699.1z"/>
		</g>
		<g>
			<path class="st29" d="M616.9,699.1c-0.2,0-0.4,0-0.6-0.1c-1.4-0.3-2.2-1.7-1.9-3.1l13.7-57.6c0.3-1.4,1.7-2.3,3.1-1.9
				c1.4,0.3,2.2,1.7,1.9,3.1l-13.7,57.6C619.1,698.3,618.1,699.1,616.9,699.1z"/>
		</g>
		<path class="st26" d="M607.5,507.1c0.2,20.7,14.5,24.4,25.7,24.3c11.1-0.1,8.7-13.5,8.6-24.7c-0.1-11.1-9.2-20.1-20.4-20
			C610.2,486.9,607.4,496,607.5,507.1"/>
		<path class="st28" d="M631,501.3c0,0-7.1-10.8-14.4-1.4c-7.3,9.4,2.5,24,14.6,21.7C631.1,512.7,631,501.3,631,501.3"/>
		<path class="st26" d="M808.1,505.1c0.2,20.7-14,24.7-25.2,24.8c-11.1,0.1-9-13.4-9.1-24.5c-0.1-11.1,8.8-20.3,20-20.4
			C804.9,485,808,494,808.1,505.1"/>
		<path class="st28" d="M784.4,499.7c0,0,6.9-10.9,14.3-1.7c7.5,9.2-2,24.1-14.1,22C781.3,510.1,783.1,499.3,784.4,499.7"/>
		<path class="st26" d="M702.8,414.4c-73.8,2.9-67.3,69.7-66.9,107.7c0.3,34.1,33.3,66.8,68.4,66.4c41-0.4,71.5-32.4,71.2-70
			C775,481,776.6,415.9,702.8,414.4"/>
		<g>
			<path class="st30" d="M703.7,590.6c-18,0-36.2-8.3-50-22.8c-12.5-13.1-19.7-29.7-19.9-45.7c0-1.1,0.9-2.1,2-2.1c0,0,0,0,0,0
				c1.1,0,2.1,0.9,2.1,2c0.2,14.9,7,30.5,18.7,42.9c13.2,13.9,30.6,21.7,47.6,21.5c17.9-0.2,34.8-6.7,47.5-18.4
				c13.9-12.8,21.8-30.9,21.6-49.6c0-1.1,0.9-2.1,2-2.1c0,0,0,0,0,0c1.1,0,2.1,0.9,2.1,2c0.2,19.9-8.2,39.1-22.9,52.7
				c-13.5,12.4-31.3,19.3-50.3,19.5C704.1,590.6,703.9,590.6,703.7,590.6z"/>
		</g>
		<path class="st31" d="M678.8,504.6c0,4-3.3,7.2-7.3,7.2c-4,0-7.2-3.3-7.2-7.3c0-4,3.3-7.2,7.3-7.2S678.9,500.6,678.8,504.6"/>
		<path class="st31" d="M742.9,505.4c0,4-3.3,7.2-7.3,7.2c-4,0-7.2-3.3-7.2-7.3c0-4,3.3-7.2,7.3-7.2
			C739.7,498.1,742.9,501.4,742.9,505.4"/>
		<g>
			<path class="st31" d="M747.5,491.5c-0.5,0-1.1-0.1-1.5-0.4c-10.7-6.8-18-0.8-18.3-0.5c-1.2,1-3,0.9-4-0.2c-1-1.2-0.9-3,0.2-4
				c0.3-0.3,2.9-2.5,7.3-3.6c4-1,10.4-1.2,17.9,3.6c1.3,0.8,1.7,2.6,0.9,3.9C749.3,491,748.4,491.5,747.5,491.5z"/>
		</g>
		<g>
			<path class="st31" d="M683.4,490.7c-0.7,0-1.4-0.2-1.9-0.7c-3.3-3-6.6-4.4-9.9-4.2c-4.6,0.3-7.8,3.7-7.8,3.7
				c-1,1.2-2.8,1.3-4,0.3c-1.2-1-1.3-2.8-0.3-4c0.2-0.2,4.7-5.3,11.8-5.7c4.8-0.3,9.5,1.6,14,5.7c1.2,1.1,1.3,2.9,0.2,4
				C685,490.4,684.2,490.7,683.4,490.7z"/>
		</g>
		<path class="st31" d="M628.1,499.3c0.8,2,3.8,1.5,3.9-0.6c0.7-11.2,12.7-26.4,14.1-44.6c2.4-31.7,31.5-41,56.3-40.5
			c35.6,0.7,59.7,9.9,60.9,39.2c1.4,33.6,5.1,37.6,10.4,49.9c1.6,3.7,6.9,2.9,7.6-1c2.6-14.3,11-17,20-15
			c5.8-60.2-10.1-117.6-98.4-116.7c-87.8,0.9-87.7,79.4-84.9,117C626.5,486.4,625.6,492.7,628.1,499.3"/>
		<path class="st31" d="M745.9,502.5c0,1.6-1.3,2.9-2.9,2.9c-1.6,0-2.9-1.3-2.9-2.9c0-1.6,1.3-2.9,2.9-2.9
			C744.6,499.6,745.9,500.9,745.9,502.5"/>
		<path class="st31" d="M666.1,501.6c0,1.6-1.3,2.9-2.9,2.9c-1.6,0-2.9-1.3-2.9-2.9c0-1.6,1.3-2.9,2.9-2.9S666.1,500,666.1,501.6"/>
		<g>
			<path class="st28" d="M698.2,537.3c-0.9,0-1.7-0.4-2.3-1.1l-3.6-4.4c-0.5-0.6-0.7-1.4-0.6-2.2l2.2-16.6c0.2-1.6,1.7-2.7,3.3-2.5
				c1.6,0.2,2.7,1.7,2.5,3.3l-2,15.4l2.8,3.4c1,1.3,0.8,3.1-0.4,4.1C699.5,537.1,698.8,537.3,698.2,537.3z"/>
		</g>
		<path class="st26" d="M607.4,502.7c0.2,20.2,13.1,22.8,22.7,23.6c0.3,0,1-13.5,0.5-24.7c-0.6-11.6-2-18.5-2.6-18.6
			C611.4,481,607.3,491.9,607.4,502.7"/>
		<path class="st28" d="M630.3,497c0,0-4.8-9.7-11.9-0.6c-7.1,9.1,0.5,22.5,12.3,20.2C631.1,507.7,630.3,497,630.3,497"/>
		<g>
			<defs>
				<path id="SVGID_9_" d="M704,411.6l0.6,16.5c0,0,16-2.6,28.5,7.3c12.5,9.9,7.4,40.5,27.7,63.7c23.7,27.1,6,40.3-2.5,68.4
					c-13.4,44.1-6.5,70,20.2,83.9c-11.9-22.4-7.3-48.6,5.6-71.2c18.2-31.8,27.3-65.1,0.8-107c-19.5-30.9-21.9-70-51.9-70
					C725.4,403.2,716,405.7,704,411.6"/>
			</defs>
			<clipPath id="SVGID_10_">
				<use xlink:href="#SVGID_9_"  style="overflow:visible;"/>
			</clipPath>
			
				<linearGradient id="SVGID_11_" gradientUnits="userSpaceOnUse" x1="-419.8777" y1="1079.8304" x2="-419.5328" y2="1079.8304" gradientTransform="matrix(0 -542.3604 -542.3604 0 586415 -227137.1406)">
				<stop  offset="0" style="stop-color:#292130"/>
				<stop  offset="1" style="stop-color:#66CC66"/>
			</linearGradient>
			<rect x="704" y="403.2" class="st32" width="107.5" height="248.2"/>
		</g>
		<g>
			<defs>
				<path id="SVGID_12_" d="M625.3,473.2c-26.4,42-17.3,75.2,0.8,107c12.9,22.6,17.5,48.8,5.6,71.2c26.7-13.9,33.6-39.9,20.2-83.9
					c-8.5-28.1-26.2-41.3-2.5-68.4c20.3-23.1,15.2-53.8,27.7-63.7c12.5-9.9,28.5-7.3,28.5-7.3l0.6-16.5c-12-5.9-21.5-8.5-29.1-8.5
					C647.3,403.2,644.8,442.2,625.3,473.2"/>
			</defs>
			<clipPath id="SVGID_13_">
				<use xlink:href="#SVGID_12_"  style="overflow:visible;"/>
			</clipPath>
			
				<linearGradient id="SVGID_14_" gradientUnits="userSpaceOnUse" x1="-419.8688" y1="1079.5231" x2="-419.5239" y2="1079.5231" gradientTransform="matrix(0 -550.8823 -550.8823 0 595342.6875 -230707.2031)">
				<stop  offset="0" style="stop-color:#292130"/>
				<stop  offset="1" style="stop-color:#66CC66"/>
			</linearGradient>
			<rect x="598.9" y="403.2" class="st33" width="107.5" height="248.2"/>
		</g>
		<g>
			<path class="st34" d="M631.6,653.5c-0.3,0-0.7-0.1-1-0.2c-1-0.5-1.4-1.8-0.9-2.8c5.5-10.3,7.6-21.8,6.3-34.3
				c-1.2-11.3-5.3-23.4-11.8-34.9c-10.8-18.9-16.3-35-17.4-50.6c-1.4-19.5,4.1-38.6,16.6-58.6c0-0.1,0.1-0.1,0.1-0.2
				c0.1-0.1,10.7-13.8,16.2-31.4c0.3-1.1,1.5-1.7,2.6-1.4c1.1,0.3,1.7,1.5,1.4,2.6c-5.5,17.8-15.8,31.3-16.8,32.6
				c-12,19.1-17.3,37.4-15.9,56c1.1,15,6.4,30.5,16.9,48.8c6.8,12,11.1,24.6,12.4,36.5c1.4,13.3-0.9,25.7-6.7,36.7
				C633.1,653.1,632.4,653.5,631.6,653.5z"/>
		</g>
		<g>
			<path class="st28" d="M702.9,558.2c-9.4,0-16.6-3.2-17.1-3.4c-1.5-0.7-2.1-2.4-1.5-3.9c0.7-1.5,2.4-2.1,3.9-1.5
				c0.2,0.1,14.1,6.2,27.6,0.2c1.5-0.7,3.2,0,3.9,1.5c0.7,1.5,0,3.2-1.5,3.9C712.9,557.4,707.6,558.2,702.9,558.2z"/>
		</g>
		<g>
			<path class="st34" d="M779,653.5c-0.3,0-0.6-0.1-1-0.2c-28-14.6-34.7-42-21.2-86.4c2.2-7.1,4.9-13.3,7.4-18.9
				c3.7-8.3,6.8-15.4,6.9-22.7c0.1-7.9-3.5-15.8-11.4-24.8c-11.4-13-15.1-28.5-18-41c-2.3-9.9-4.3-18.4-9.4-22.4
				c-11.6-9.2-26.8-6.9-26.9-6.9c-1.1,0.2-2.2-0.6-2.4-1.7c-0.2-1.1,0.6-2.2,1.7-2.4c0.7-0.1,17.1-2.6,30.1,7.7
				c6.2,4.9,8.4,14.1,10.9,24.7c3,12.6,6.3,26.9,17.1,39.2c18.7,21.4,12.7,34.9,5.1,52c-2.5,5.7-5.1,11.5-7.2,18.4
				c-6.6,21.7-8.2,38.8-4.9,52.2c3.2,12.9,11.1,22.5,24.1,29.3c1,0.5,1.4,1.8,0.9,2.8C780.5,653,779.7,653.5,779,653.5z"/>
		</g>
		<g>
			<defs>
				<polygon id="SVGID_15_" points="664.9,639.8 616.1,516.6 780.4,515.1 729.8,644.3 				"/>
			</defs>
			<clipPath id="SVGID_16_">
				<use xlink:href="#SVGID_15_"  style="overflow:visible;"/>
			</clipPath>
			<defs>
				<filter id="Adobe_OpacityMaskFilter" filterUnits="userSpaceOnUse" x="616.1" y="515.1" width="164.3" height="129.2">
					<feColorMatrix  type="matrix" values="1 0 0 0 0  0 1 0 0 0  0 0 1 0 0  0 0 0 1 0"/>
				</filter>
			</defs>
			<mask maskUnits="userSpaceOnUse" x="616.1" y="515.1" width="164.3" height="129.2" id="SVGID_17_">
				<g class="st35">
					
						<linearGradient id="SVGID_18_" gradientUnits="userSpaceOnUse" x1="-419.914" y1="1080.6039" x2="-419.5691" y2="1080.6039" gradientTransform="matrix(0 311.5775 311.5775 0 -335993.5938 131374.6406)">
						<stop  offset="0" style="stop-color:#000000"/>
						<stop  offset="5.131450e-07" style="stop-color:#000000"/>
						<stop  offset="1" style="stop-color:#FFFFFF"/>
					</linearGradient>
					<rect x="616.1" y="515.1" class="st36" width="164.3" height="129.2"/>
				</g>
			</mask>
			
				<linearGradient id="SVGID_19_" gradientUnits="userSpaceOnUse" x1="-419.914" y1="1080.6039" x2="-419.5691" y2="1080.6039" gradientTransform="matrix(0 311.5775 311.5775 0 -335993.625 131374.6406)">
				<stop  offset="0" style="stop-color:#FFFFFF"/>
				<stop  offset="5.131450e-07" style="stop-color:#FFFFFF"/>
				<stop  offset="1" style="stop-color:#FFFFFF"/>
			</linearGradient>
			<rect x="616.1" y="515.1" class="st37" width="164.3" height="129.2"/>
		</g>
		<path class="st38" d="M722.8,742.2h-49c-4.4,0-8-3.6-8-8V637c0-4.4,3.6-8,8-8h49c4.4,0,8,3.6,8,8v97.1
			C730.8,738.6,727.2,742.2,722.8,742.2"/>
		<path class="st39" d="M722.8,752h-49c-4.4,0-8-3.6-8-8v-97.1c0-4.4,3.6-8,8-8h49c4.4,0,8,3.6,8,8V744
			C730.8,748.4,727.2,752,722.8,752"/>
		<path class="st40" d="M677.1,673.8L677.1,673.8c-2.9,0-5.3-2.4-5.3-5.3v-13c0-2.9,2.4-5.3,5.3-5.3c2.9,0,5.3,2.4,5.3,5.3v13
			C682.4,671.4,680,673.8,677.1,673.8"/>
		<path class="st41" d="M679.3,655.9c0,1.4-1.2,2.6-2.6,2.6s-2.6-1.2-2.6-2.6s1.2-2.6,2.6-2.6S679.3,654.4,679.3,655.9"/>
		<path class="st41" d="M679.3,664.6c0,1.4-1.2,2.6-2.6,2.6s-2.6-1.2-2.6-2.6s1.2-2.6,2.6-2.6S679.3,663.2,679.3,664.6"/>
		<path class="st26" d="M730.8,678c0,0-17.8-14.5-22.5-6.5c-4.8,8,7.6,18,7.6,18s-10.7-5.9-11.5,2.3c-1.1,12.8,14.1,21,14.1,21
			s-11.3-2.7-12.6,3.4c-1.2,5.4,8,22.5,52.3,21.6c27.3-0.6,35.9-11.6,35.9-25.2c0-13.4-11-21.2-37.1-27L730.8,678z"/>
		<path class="st26" d="M759.9,687c0,0,1-23-29.2-22.4l-0.2,16.5L759.9,687z"/>
		<path class="st26" d="M665.7,678c0,0,17.8-14.5,22.5-6.5c4.8,8-7.6,18-7.6,18s10.7-5.9,11.5,2.3c1.1,12.8-14.1,21-14.1,21
			s11.3-2.7,12.6,3.4c1.2,5.4-8,22.5-52.3,21.6c-27.3-0.6-35.9-11.6-35.9-25.2c0-13.4,11-21.2,37.1-27L665.7,678z"/>
		<path class="st26" d="M636.5,687c0,0-1-23,29.2-22.4l0.2,16.5L636.5,687z"/>
		<g>
			<path class="st28" d="M745.9,684.2c-0.2,0-0.5,0-0.7-0.2l-13.8-5.8c-1-0.4-1.4-1.5-1-2.5c0.4-1,1.5-1.4,2.5-1l13.8,5.8
				c1,0.4,1.4,1.5,1,2.5C747.4,683.8,746.7,684.2,745.9,684.2z"/>
		</g>
		<g>
			<path class="st28" d="M653.8,681.3c-0.8,0-1.6-0.6-1.8-1.4c-0.3-1,0.3-2.1,1.3-2.3l10.8-2.9c1-0.3,2.1,0.3,2.3,1.3
				c0.3,1-0.3,2.1-1.3,2.3l-10.8,2.9C654.1,681.3,654,681.3,653.8,681.3z"/>
		</g>
		<path class="st42" d="M778.3,692l56.3,16.9c11.6,3.3,18.6,15,16.2,26.8v0c-2.7,12.8-15.5,20.8-28.2,17.6l-64-16.4
			C758.6,736.9,776.1,721.8,778.3,692"/>
		<path class="st42" d="M618.8,692l-45.6,14.9c-11.6,3.3-18.6,15-16.2,26.8c2.7,12.8,15.5,20.8,28.2,17.6l53.3-14.4
			C638.5,736.9,621.1,721.8,618.8,692"/>
	</g>
</g>
</svg>
