<?xml version="1.0" encoding="utf-8"?>
<!-- Generator: Adobe Illustrator 24.0.0, SVG Export Plug-In . SVG Version: 6.00 Build 0)  -->
<svg version="1.1" id="Capa_1" xmlns="http://www.w3.org/2000/svg" xmlns:xlink="http://www.w3.org/1999/xlink" x="0px" y="0px"
	 viewBox="0 0 50 20" style="enable-background:new 0 0 50 20;" xml:space="preserve">
<style type="text/css">
	.st0{fill:url(#SVGID_1_);}
	.st1{fill:#FFFFFF;}
</style>
<g>
	<linearGradient id="SVGID_1_" gradientUnits="userSpaceOnUse" x1="0.2281" y1="10" x2="49.7719" y2="10">
		<stop  offset="0" style="stop-color:#ED6C50"/>
		<stop  offset="1" style="stop-color:#F39874"/>
	</linearGradient>
	<path class="st0" d="M40,19.7H10c-5.4,0-9.7-4.4-9.7-9.7V0.3H40c5.4,0,9.7,4.4,9.7,9.7v0C49.8,15.4,45.4,19.7,40,19.7z"/>
	<g>
		<path class="st1" d="M43.1,7.8H6.9C6.4,7.8,6,7.4,6,6.9S6.4,6,6.9,6h36.3C43.6,6,44,6.4,44,6.9S43.6,7.8,43.1,7.8z"/>
	</g>
	<g>
		<path class="st1" d="M32.5,14H6.9C6.4,14,6,13.6,6,13.1c0-0.5,0.4-0.9,0.9-0.9h25.7c0.5,0,0.9,0.4,0.9,0.9
			C33.4,13.6,33,14,32.5,14z"/>
	</g>
</g>
</svg>
