<?xml version="1.0" encoding="utf-8"?>
<!-- Generator: Adobe Illustrator 24.0.0, SVG Export Plug-In . SVG Version: 6.00 Build 0)  -->
<svg version="1.1" id="Capa_1" xmlns="http://www.w3.org/2000/svg" xmlns:xlink="http://www.w3.org/1999/xlink" x="0px" y="0px"
	 viewBox="0 0 331.2 256.2" style="enable-background:new 0 0 331.2 256.2;" xml:space="preserve">
<style type="text/css">
	.st0{fill:#DEEAEB;}
	.st1{fill:#522F52;}
	.st2{fill:#15304E;}
	.st3{fill:#E8E6E8;}
	.st4{fill:#088A92;}
	.st5{fill:#078A93;}
	.st6{fill:#97CEB8;}
	.st7{fill:#9FCFBD;}
	.st8{fill:#F7FAFA;}
	.st9{fill:#FAC297;}
	.st10{fill:#079460;}
	.st11{fill:#95CEB7;}
	.st12{fill:#B2D0CD;}
	.st13{fill:#068B91;}
	.st14{fill:#36B396;}
	.st15{fill:#EE7256;}
	.st16{fill:#EE7055;}
	.st17{fill:#8EC9B4;}
	.st18{fill:#E9906E;}
	.st19{fill:#3EA18E;}
	.st20{fill:#122D46;}
	.st21{fill:#078B91;}
	.st22{fill:#DCE9EB;}
	.st23{fill:#D9E8E8;}
	.st24{fill:#98CEB8;}
	.st25{fill:#95CEB8;}
	.st26{fill:#99CEB9;}
	.st27{fill:#0A9968;}
	.st28{fill:#B0D2C7;}
	.st29{fill:#AFD5C9;}
	.st30{fill:#B6D6CE;}
	.st31{fill:#A8CFC3;}
	.st32{fill:#AFD0C8;}
	.st33{fill:#ABD2C8;}
	.st34{fill:#A6CEBF;}
	.st35{fill:#C4E3DC;}
	.st36{fill:#A4CCBC;}
	.st37{fill:#CBDBE0;}
	.st38{fill:#AAC3C9;}
	.st39{fill:#F18B6F;}
	.st40{fill:#E94E32;}
	.st41{fill:#102134;}
	.st42{fill:#112134;}
	.st43{fill:#EE7056;}
	.st44{fill:#97CAB4;}
	.st45{fill:#94CBB9;}
	.st46{fill:#E94C33;}
	.st47{fill:#F39873;}
	.st48{fill:#8DA89B;}
	.st49{fill:#2FB194;}
	.st50{fill:#7AC2AF;}
	.st51{fill:#31B296;}
	.st52{fill:#E9F3F4;}
	.st53{fill:#B9C9C6;}
	.st54{fill:#93C9AD;}
	.st55{fill:#E94B2A;}
	.st56{fill:#EC6648;}
	.st57{fill:#F8FBF8;}
	.st58{fill:#E94B38;}
	.st59{fill:#F1F7F1;}
	.st60{fill:#FEF5F1;}
	.st61{fill:#8ECBB5;}
	.st62{fill:#42AF98;}
	.st63{fill:#ACCFD1;}
	.st64{fill:#93CDB5;}
	.st65{fill:#058E92;}
	.st66{fill:#139391;}
	.st67{fill:#CEE6E0;}
	.st68{fill:#B9C8C4;}
	.st69{fill:#DCDBD6;}
	.st70{fill:#EE7054;}
	.st71{fill:#E94F27;}
	.st72{fill:#E94C28;}
	.st73{fill:#D4EDFB;}
	.st74{fill:#E95228;}
	.st75{fill:#E9483B;}
	.st76{fill:#E94C3D;}
	.st77{fill:#E94F25;}
	.st78{fill:#F0F0F0;}
	.st79{fill:#FFFFFF;}
	.st80{fill:#B1D2CA;}
	.st81{fill:#B3D1CD;}
	.st82{fill:#A5D8DC;}
</style>
<g id="iurh6N_5_">
	<g>
		<g>
			<g>
				<path class="st0" d="M139.5,77.3c0.2-0.3-2.6,2-3,2c2.1,1.8,3.4,2.9,4.2,3.6C140.1,80.5,139.2,77.6,139.5,77.3z"/>
				<path class="st0" d="M140.8,83c0.1,0.2,0.1,0.4,0.2,0.5C141.8,84.1,142.1,84.2,140.8,83z"/>
				<path class="st0" d="M38.5,118.8c-1.1,3.1-0.9,3.7-0.3,8.6c1,9.4,8.5,18.5,14.7,27.7c31.3,36.1,40.2,19.6,46.4,18.3
					c14-2.9,27.5-61.2,29.6-65.7c1.4-13.4,16.2,0,12.1-24.2c-10.4-6-4.1-26.8,3.6-18.2c-0.4-0.9,2.8-12-5-12c0-1.1-3.4-3.7-3-5
					c-1.1-1.7,18.3-12,6-7c-2.9-14.7,20.6-10.9,11.2-21.6C92.9-14.3,83.9,38.8,71.2,78.3c-0.8,1.2-1.6,2.5-2.4,3.7
					c-0.4,0-0.4,0.4-0.6,0.6c-0.1,1.7-0.5,1.7-3.7,4.9c-7,6.5-15.8,12.1-21.4,22"/>
				<path class="st0" d="M136.6,79.3C136.6,79.3,136.5,79.3,136.6,79.3C136.5,79.3,136.5,79.3,136.6,79.3z"/>
			</g>
			<path class="st0" d="M52.5,116"/>
			<path class="st1" d="M119.8,218.8c-1.2-0.3-2.4-0.7-3.6-1c-2.8-0.1-5.5-0.9-8.1-1.9c-0.8-0.2-1.7-0.2-2.5-0.4
				c-0.9-0.6-2-0.8-2.9-1.4c-7.4-3.3-15-6.3-21.8-10.7c-0.6-0.4-1.2-0.9-1.8-1.2c-3.3-1.7-6-4.2-8.2-7.1c-2.6-3.1-3.9-6.6-3.5-10.7
				c0.2-1.3,0.7-2.5,1.2-3.7c0.1-0.2,0.3-0.5,0.4-0.7c0.5-0.6,0.8-1.4,1.2-2.1c0.2-0.4,0.5-0.7,0.9-1c2.4-2.1,5.2-3.4,8.5-3.7
				c2-0.1,4.1,0,6.1,0c2.4,0.2,4.8,0.7,7.3,0.8c5.2,0.7,10.3,1.5,15.5,2.4c1.3,0.3,2.1,1.2,2.8,2.2c1.9,2.5,4.2,4.7,6,7.2
				c-0.3,6.7,3.8,10.2,9.2,12.8c1,0.5,2,1.1,2.9,1.6c3,2.3,6.3,3.1,10.2,3.1c14.3-0.2,28.6-0.1,42.8-0.1c3,0,5.1-2,7.5-3.3
				c2.7-1.6,5.2-3.5,7.9-5.1c1.7-1,2.6-2.4,2.6-4.4c-0.1-1.7,0.5-3.4,0.9-5.1c2.5-3.5,5.1-7,8.4-9.9c0.9-0.4,1.8-0.7,2.8-0.9
				c6.4-1.4,12.8-2.4,19.3-2.5c1.5,0,3,0.1,4.5,0.6c1.3,0.1,2.6,0.3,3.9,0.7c5.8,1.5,9.8,4.8,10.9,11c0.1,0.4,0.1,0.9,0.1,1.4
				c0,1-0.3,2-0.5,3c0,0.3-0.1,0.6-0.2,0.8c-0.2,0.7-0.4,1.3-0.7,2c-0.9,2.1-2.4,3.8-3.8,5.5c-0.9,0.9-1.8,1.8-2.8,2.6
				c-6.6,5-14.1,8.2-21.4,12c-0.3,0.1-0.5,0.2-0.8,0.3c-2,0.7-3.9,1.4-5.8,2.3c-1,0.4-2.1,0.7-3,1.4c-0.7,0.5-1.6,0.7-2.4,0.8
				c-2.2,0.5-4.5,1.2-6.8,1.5c-1.6,0.5-3.3,1-4.9,1.5c-3.6,2.4-8,2.6-12,4.2c-1.2,0.5-2.5,0.7-3.8,1.2c-1.9,0.3-3.8,2-5.8,0.4
				c-1.9-3.4-3.1-7-4.5-10.6c-0.7-1.7-1.4-1.9-2.9-1c-3,1.8-6,3.7-9.6,4.5c-3.5-0.2-6.1-2.5-9.1-3.7c-1.1-0.8-2.4-1.4-3.4-2.4
				c0.1,1-0.2,1.9-0.5,2.8c-0.7,1.6-1.1,3.4-3.4,3.4c-1.3,0-2.5-0.4-3.8-0.8c-4.8-2.2-9.7-3-14.9-0.9
				C122.9,217.1,121.9,219,119.8,218.8z"/>
			<path class="st0" d="M196.5,66.3c-8.6-2.9-2.5-12.5-2.5-21.2c0-3.9-0.5-7.9-0.9-11.8c0.1-0.5,0.3-1,0.7-1.3
				c8.6-0.8,17.1-1,25.7,0c2.6,0.5,5.4,0.2,8,1c5.8,1.1,10.9,4.1,15.6,7.4c12,8.5,20.6,19.5,24,34.1c1.6,6.7,1.1,13.3-1.3,19.8
				c-0.6,1.4-1.3,2.8-1.8,4.2c-1.3,1.4-1.6,3.2-2.3,4.9c-2.5-3.5-5.5-3.5-7.7,0c-0.5,0.9-1,1.8-0.5,2.9c0.5,1.1,1.6,1.2,2.6,1.1
				c0.8,0,1.6-0.4,2.3,0.2c-0.8,3.8-3.1,7.2-3.4,11.2c-0.1,0.8-0.4,1.6,0.3,2.2c-0.8,3.1-3.5,3.9-6,4.3c-2.9,0.5-4.6-1.3-5.8-3.8
				c-2.2-3-3.4-3.3-6.5-1.7c-1.6,0.9-2.9,2.1-4,3.6c-0.6,0.9-1.1,2-2.4,2c-0.2-0.2-0.4-0.4-0.6-0.6c-0.7-2-2.1-2.2-3.9-1.7
				c-2.7,0.8-4.7,2.8-6.9,4.3c-1.6,1-2.8,2.8-4.9,2.8c-1.2-1.1-0.4-2.3,0-3.3c1-2.6,2-5.3,3.1-7.8c0.7-1,1.7-1.3,2.7-1.7
				c3.6-1,7.4-1.4,10.9-2.9c1.6-0.7,4.3-1.2,3.4-3.3c-0.8-2-3-0.3-4.5,0.3c-3.4,1.3-5.7,4.2-9.1,5.5c-1.6,0-1.7-1-1.5-2.2
				c0.2-0.9,0.6-1.7,0.9-2.5c0.1-0.3,0.2-0.6,0.3-0.8c1.2-2,1.8-4.4,3.4-6.1c0.9-0.5,2-0.2,2.9-0.8c2.8-0.8,5.8-1,8.5-2.3
				c1-0.5,2.8-1.1,2.2-2.4c-0.7-1.5-2.4-0.6-3.5,0c-2.9,1.3-5.2,3.5-8.1,4.8c-0.3,0.1-0.6,0.1-0.8,0c-0.6-1.1-2.1-1.4-2.5-2.7
				c-0.3-3.4-0.3-6.9-1.3-10.2c-0.2-1.5-0.4,15.8-1.7,15.5c-1.5,1.4-8.6-9.1-11-8c-2.5-4.1-2.4-7-5-11c-0.2-0.9-1-3.1-1-4
				c0-1.1,0.7-3,1-4c0.2-1-2.2-2-2-3c-5.6,3.8-0.1-5.7,0-6c0.4-1.2,0.5,4.3,0,3"/>
			<path class="st2" d="M209.7,82.7c3.1,3.4,5.9,7.1,7.5,11.5c2.2,3.2,2.2,6.8,1.7,10.4c-0.2,1.3-0.6,2.6-1.1,3.8
				c-0.7,1.4-1.6,2.6-2.7,3.8c-1.5,1.2-3.1,2.1-4.5,3.3c-1.7,0.9-3,2.5-5.2,2.3c-1.5-0.7-2.1-2.2-2.8-3.5c-1.9-3.7-4.2-7.1-6-10.9
				c-2-4.5-4.6-8.8-8.9-11.6c-0.4-0.3-0.7-0.7-0.7-1.3c1.4-3.1,0.5-5.9-0.8-8.7c-1.3-2.7-3.2-4.9-5.1-7.1c-2.5-3-3.7-6.7-4.7-10.4
				c-0.1-1.2,0.2-2.4,0.1-3.5c0-5.6-1.5-7.7-6.7-9.9c-4.1-1.7-8.2-3.4-12-5.9c-2.9-1.9-5.6-4-7.1-7.3c-3.1,3.7-8.1,5.7-8.2,11.3
				c-0.9,4.4,0.2,8.5,1,12.8c0.2,1.2,0.8,2.3,0.7,3.5c-0.3,1.5-0.6,3-0.6,4.5c-0.1,3-0.9,5.8-2.7,8.2c-2.3,3.2-3,7-4,10.7
				c-0.6,1-1.5,1.5-2.6,1.9c-1.2,0.3-2.5,0.4-3.6,1c-0.7,0.3-1.4,0.8-2,1.2c-0.7,0.4-1.3,0.8-1.8,1.5c-1.4,1.3-1.8,3.9-4.4,3.6
				c1.2-2.4,2.3-4.9,3.6-7.2c0.8-1.4,1.1-2.8,0.5-4.3c0-1.4-0.1-2.9-1.3-3.9c-1.9-3.2-1.6-6.5-0.5-9.9c0.4-0.7,0.8-1.4,1.3-2
				c2.4-2,4.3-4.5,5.6-7.4c0.3-0.7,0.4-1.4,0.5-2.2c0-0.9,0.1-1.8-0.5-2.6c-0.2-0.9-0.6-1.7-1.2-2.5c-0.3-1-0.9-1.8-1.2-2.8
				c-2.8-5.5-1.5-10.6,1.4-15.6c0.9-1.7,2.3-3.1,2.9-5c6.2-4.5,13.5-7.1,19.5-11.8c0.3-0.2,0.5-0.6,0.7-0.9c0.5-0.1,1,0,1.1-0.6
				c0.3-0.4,0.4-0.8,1-0.9c0.2,0,0.4,0,0.6,0c0.1-0.2,0.1-0.4,0-0.6c-0.1-0.3,0.1-0.4,0.3-0.4c0.8,0,1.6,0.1,2.4,0.1
				c0.5-0.3,1-0.7,1.6-0.7c0.6-0.1,1.2,0,1.7,0.4c1.6,1,3.5,1.2,5.3,1.1c0.4,0-0.3-0.6,0-0.2c-1.4,0.5-2.7,0.2-4.1-0.3
				c-0.3-0.1-0.6-0.1-0.9-0.2c0.6-2,2.4-1.5,3.7-1.4c10.4,1.3,19.1,5.5,25.4,14.2c0.9,0.9,0.6,2.5,2.1,3c0.4,5.2,0.8,10.5,1.3,15.7
				c0.6,6,3.1,10.7,9.4,12.3c1.1,0.3,1.7,1,2.3,1.8c0.1,0.2,0.3,0.4,0.5,0.6c0.2,0.2,0.4,0.4,0.7,0.7c1.7,2.6,1.6,5.5,1.1,8.4
				c-0.3,2.3-0.5,4.6-0.3,6.8c0.2,0.2,0.3,0.4,0.5,0.7C209.6,81,209.2,81.9,209.7,82.7z"/>
			<path class="st3" d="M198.8,221.1c11.2,0.4,22.5,0.5,33.7,1.3c13.6,0.9,27.2,1.7,40.7,4.2c1.8,0.3,3.5,1,5.2,1.6
				c0.8,0.3,1.5,0.7,1.4,1.7c-0.1,0.9-0.9,1.1-1.5,1.3c-3.8,1.5-7.8,2-11.8,2.6c-10.5,1.5-21.1,2-31.7,3c-4.1,0.4-8.3,0.4-12.4,0.5
				c-9.5,0.2-19.1,0.8-28.6,0.9c-16.3,0.1-32.7,0.9-49,0.4c-10.5-0.3-20.9-0.2-31.3-0.7c-8.7-0.4-17.4-0.4-26.1-1.1
				c-13.5-1.2-27-1.4-40.3-4.2c-1.7-0.4-3.3-0.8-5-1.3c-0.8-0.2-1.5-0.8-1.7-1.6c-0.2-1,0.8-1.3,1.5-1.6c4-1.6,8.2-2.2,12.4-2.8
				c11.5-1.5,23.1-2.2,34.7-3c7.5-0.5,15-1.2,22.5-0.7c2.7,0.2,5.2-0.3,7.9-0.6c0.8,0.5,0.9,1.3,1,2.1c1.4,7.1,8.4,10.2,14.6,9.6
				c3.3-0.3,6.6-0.8,9.9-1.6c0.7-0.1,1.3-0.3,1.9-0.5c4.5-0.8,9-1.8,13.6-1.9c1.6,0.4,3.3,0.6,4.9,0.8c2.4,0.6,4.9,0.4,7.3,1.2
				c5,1.4,10,2.6,15.2,1.6c5.4-1.1,9.1-4.2,10.4-9.8C198.1,222,198.3,221.4,198.8,221.1z"/>
			<path class="st4" d="M145.1,231.9c-5,1.1-10.1,2.3-15.3,1.3c-5.5-1-11-6.1-10.5-12.2c0.2-0.8,0.4-1.5,0.6-2.3
				c6-5.5,12.6-5.7,19.6-2.1c0,0.2,0,0.4-0.1,0.6c-4.6,5.9-3.1,10.7,4.1,12.8c0.3,0.1,0.6,0.2,0.9,0.3
				C144.9,230.8,145.2,231.2,145.1,231.9z"/>
			<path class="st5" d="M198.8,221.1c-0.4,7.2-5.5,12.3-13.4,12.5c-4.5,0.2-9.1-0.3-13.3-2.2c0.7-1.2,2-1.2,3.1-1.6
				c1.7-0.6,3.5-1,4.6-2.6c0.8-0.9,1.1-2.3,2.2-3c5.2-2,10.6-3.6,16.1-4.8C198.4,219.9,198.6,220.5,198.8,221.1z"/>
			<path class="st6" d="M258.5,107.5c-2.2,0.5-4.6,1.8-5.9-1.2c-0.8-1.9,1.3-5,3.9-6.1c3.4-1.4,4.8-0.5,5.2,3.1
				C261,105,259.6,106.1,258.5,107.5z"/>
			<path class="st7" d="M267.8,197.7c0-0.2,0-0.3,0-0.5c1.3-0.2,2.4-0.2,3,1.3c-0.2,0.6-0.5,1.3-0.7,1.9c-0.2,0-0.4,0-0.5-0.1
				C268.8,199.6,268,198.9,267.8,197.7z"/>
			<path class="st8" d="M152.4,19c-1.3-0.2-2.4-0.6-3.1-1.8C150.6,17.4,151.7,17.8,152.4,19z"/>
			<path class="st9" d="M99.8,150.4c3.9,0.6,7.8,1.1,11.6,1.8c1.2,0.2,1.9,0,2-1.3c1.3,0.3,1.3,1.4,1.4,2.4
				c0.5,10,2.2,19.9,2.7,29.8c0.1,1,0.3,2-0.7,2.8c-3-2.5-5-6-7.8-8.7c-3.6-2.4-4.6-6.6-6.7-10c-0.3-0.7-0.6-1.3-0.7-2
				c-0.6-1.3-1.1-2.6-1.1-4C100.1,157.6,99.5,154,99.8,150.4z"/>
			<path class="st10" d="M69.8,92.8c1.3,0.1,2.6,1.3,3.4,3c0.9,1.8,1.3,3.6,0.3,5.5c0,0.1-0.1,0.2-0.2,0.2c-1,1.1-2.1,1.4-3.5,0.6
				c-2.2-1.2-4.4-5.1-3.9-7.1C66.3,93.6,67.3,92.7,69.8,92.8z"/>
			<g>
				<path class="st11" d="M94.9,136.8c1.2,3.3,2.1,6.7,3.7,9.8c1.4-3.8,2.8-7.7,4.2-11.5c-2.2,0-4.4,0-6.6-0.1
					C94.9,135,94.4,135.4,94.9,136.8z"/>
				<path class="st11" d="M100.9,140.3c-0.2-0.3,6-13.5,6.6-15.2c0.6-1,1-1.9,1.4-2.5c1.6-2.4,2.1-3.5,3.1-4.9
					c0.1-0.1,0.1-0.1,0.1-0.2c3.2-5,3.9-9.9,7.6-15.7c-0.1-1.2-0.1-1.8-0.9-2.6c-1.7-1.7-4.2-3.8-5.9-5.6c-0.8-0.3,0.2-0.6-0.2-0.4
					c0-0.3,0.2,0.4,0,0c0,0-2.8-2.7-3.6-2.8c0,0,2.8,2.8,2.8,2.8c-6.6-6.7-15.3-13.7-22.6-19.5c-2.8-2.7-5.9-5.1-9.1-7.4
					c-0.6-0.5-1.7-1.4-1.7-1.4l-0.2,1.5c-0.1,1.1,0.4,3.4,1.2,4.9c0,0,0,0,0,0c1.1,5.3,1.1,5.3,2.6,13c0,0-1.3-6,0.5,2
					c-0.5-2,0.9,5.1,0.6,2.7c1,4.8,0.8,4.1,1.3,6.2c1.6,7.3,4.7,19.7,5.5,24.3l0.5,2.4c0.4,1.7,1,3.6,1,3.6c0.5,1.5,2,0.2,3.5,1.8
					c0.3,0.3-5.4-2.1,1.1,12.9 M111.3,98.4C111.3,98.4,111.3,98.4,111.3,98.4C111.3,98.4,111.3,98.4,111.3,98.4
					C111.3,98.4,111.3,98.4,111.3,98.4z"/>
			</g>
			<path class="st9" d="M144.4,231c-3.6-0.5-6.7-1.6-8.1-5.3c-1.5-3.9-0.6-6.5,3.1-8.9c1.3,0.3,2.5,0.6,3.8,0.8
				c5.5-0.7,10.9-0.5,16.4,0c3.4-1.7,6.8-3.4,10.2-5.2c1.4-0.8,2-0.7,2.6,0.9c1.4,3.9,2.9,7.7,4.4,11.5c0.1,1.8-1.4,2.1-2.6,2.4
				c-4.6,1.2-9.1,2.7-13.9,2.5c-4.7,0.6-9.3,1.3-14,1.9C145.6,231.5,145,231.2,144.4,231z"/>
			<path class="st9" d="M202.3,179c0.8-7.1,1.7-14.2,2-21.3c0.7-1.2-0.4-2.6,0.5-3.7c0.3-1.4-0.3-3,0.6-4.4c1.2,1.5,2.6,1.9,4.4,1.4
				c2-0.5,4.1-0.7,6.1-1.1c0.3-0.1,0.6-0.1,0.9-0.2c0.7,0,1.3,0.1,1.8,0.7c0.7,1.4,0.5,3,0.4,4.5c-0.4,2.2-0.8,4.5-1.5,6.7
				c-0.2,0.6-0.8,1-1.1,1.6c-0.4,0.6-0.8,1.2-1.2,1.7c0.9,1.8-0.3,3.1-1,4.5c-0.6,1.4-1.5,2.6-2.3,3.9c-0.7,0.9-1.4,1.8-2.4,2.5
				c-2.7,3-4.9,6.4-7.9,9.2c0-0.8,0-1.5,0-2.3C202.5,181.5,201.7,180.2,202.3,179z"/>
			<path class="st12" d="M131.6,200.4c19.6,0,39.1,0,58.7,0c-2.1,1.4-4.1,3.2-6.8,3.5c-0.8-0.7-1.8-0.7-2.7-0.8
				c-14.8,0-29.6-0.1-44.4,0.1c-1.6,0.3-2.8-0.6-4.2-1.1C131.5,201.7,131.1,201.2,131.6,200.4z"/>
			<path class="st13" d="M79.1,174c-0.8-2.7-2.9-4.6-4.1-7c-0.5,1.4-1,2.8-1.5,4.2c-1.5-0.9-0.2-1.6,0-2.5c0.2-0.9,0.2-1.8,0.3-2.7
				c-1-0.6-0.8,1.3-1.7,0.8c-0.4-1.9,2.2-1.6,2.2-3.2c1.6-2.1,5.3-2,7.8,0.2c1.1,1.6,3.1,2.5,3.2,4.8c-3.5,2.4-0.3,3.7,0.8,5.4
				C83.7,174,81.4,174,79.1,174z"/>
			<path class="st14" d="M96.2,171.1c2.1-1.4,4.1-2.8,6.2-4.3c0.1,0,0.3,0,0.4,0c2.1,3.4,4.1,6.9,6.2,10.3
				c-5.3-0.9-10.6-1.7-15.9-2.6C92.7,172.2,94.7,171.9,96.2,171.1z"/>
			<path class="st15" d="M160.3,229.6c4.3-1,8.6-2,12.9-3c1.3-0.3,2.9-0.4,3.7-1.8c1.9,1.2,3.4-0.9,5.2-0.5
				c-0.3,1.1-0.5,2.2-1.4,3.1c-4.9,2.5-10.1,3.6-15.7,3.1C163.5,230.3,161.9,230.2,160.3,229.6z"/>
			<path class="st16" d="M159.6,217.5c-5.5,0.8-10.9,0.8-16.4,0c2.3,0.1,1.7-2.3,2.8-3.2c1.4-1.4,3-1.4,4.7-0.7
				C153.8,214.8,156.4,216.9,159.6,217.5z"/>
			<path class="st17" d="M309.3,166.1C309.3,166.1,309.3,166.1,309.3,166.1c-2.2-0.9-4.5-0.4-6.7-0.5c0,0,0,0,0,0c0,0,0,0,0,0
				c-10.2-0.6-20.4-0.7-30.6-0.8c-0.3-0.2-0.5-0.2-0.8-0.2c-0.8,0.3-1.4,0.8-1.9,1.4c0.1-0.3,0.2-0.7,0.2-1.1c0,0,0,0,0,0
				c-3,0.2-6,0.4-9,0.6c-1,0.1-1.5,0.6-2,1.5c-1.1,2-1.6,4.3-3.1,6.1c-0.2-0.3-0.4-0.4-0.4-0.6c-0.3-2,0.9-4.7-0.7-6
				c-1.6-1.3-4,0.5-6.1,0.3c-1.8,2.6-5.4,2.5-7.5,4.6c0,0.1-0.1,0.2-0.1,0.2c-1.5-0.1-3.1-0.1-4,1.6c1.3,0.2,2.5,0.5,3.8,0.7v0
				c5.4,1.5,9.1,4.8,10.4,10.4c-0.1,0.8-0.4,0.9-0.1,0.8c-0.3,0.3,0.4-0.1,0.2,0.4c-0.2,1-1,4.6-1.2,5.6c0,0,3.6,0.3,5,1
				c4.1-0.7,2.6-1.1,4-1c0.4,0.1,1,0.2,1.4,0.4c3.1,0.3,4.9,2.6,7.1,4.3c-0.5,3.2,0.7,4.5,2.5,4.2c7.1-4.3,15.5-11.9,22-17.1
				c0.6-0.2,1.1-0.6,1.4-1.2c0.7-0.4,1.5-0.9,2.2-1.3c0-0.3-0.1-0.6-0.2-0.7c0.5,0,1-0.1,1.5-0.4c5.3-3.6,10.2-7.8,15.9-11l3.2-2.3
				C314.5,166.3,310.3,166.1,309.3,166.1z M309,167.7C309.1,167.7,309.1,167.7,309,167.7c0.1,0,0.1,0,0.1,0
				C309.1,167.7,309.1,167.7,309,167.7z M309.8,167.5C309.8,167.5,309.8,167.5,309.8,167.5c0.1-0.1,0.2-0.1,0.3-0.1
				C310,167.5,309.9,167.5,309.8,167.5z"/>
			<path class="st18" d="M150.7,213.6c-1.6,0.2-3.1,0.5-4.7,0.7C147,211.1,147,211.1,150.7,213.6z"/>
			<path class="st19" d="M211.5,173.3c0.2,0.7,0.5,1.3,0.7,2c-0.8,0.2-1.6,0.4-2.4,0.6C210.3,175,210.9,174.2,211.5,173.3z"/>
			<path class="st20" d="M177.4,221.7c-0.8-0.4-1.3-0.9-1.1-2C177.2,220.2,177.3,220.9,177.4,221.7L177.4,221.7z"/>
			<path class="st20" d="M177.4,221.7c0.7,0.4,1.4,0.8,1,1.9C177.6,223.2,177.5,222.4,177.4,221.7L177.4,221.7z"/>
			<path class="st21" d="M265.9,147.5c1.2-2.6-0.1-4.6-1.9-6.3c-3.3-3.1-3.1-4.9,0.8-7.3c3.4-2.1,7.2-3,10.9-4.6
				c1.9-0.1,2.9-1.4,3.8-2.7l0,0c0.4-0.4,1-0.6,1-1.3c2.2-6.1,1.9-7.8-2.3-10.9c-2.6-1.7-5.4-2.1-8.4-1.6c-5.8,1-10,4.7-14.3,8.2
				c-5.5,5.1-8.2,5.1-11.3,0c0,0,0,0,0,0c-2.3-3.3-4.6-3.7-8-1.5c-2.4,1.5-3.8,3.9-5.4,6c-2.6,2.7-3.9,6.2-5.4,9.5
				c1.2,2.7,0,4.3-2.3,5.7c-1.7,1-3.8,1.4-5,3.2c-0.2,2,0.3,3.8,1.1,5.6c2.3,2.2,0.2,3.9-0.7,5.7c-0.5,2.2-0.9,4.5-1.4,6.7
				c0.2,0.1,0.5,0.1,0.6,0.1c-0.4,0.3-0.9,0.6-1.3,0.8c-0.7,0.6-1.3,1.2-1.1,2.2c0.1,0.1,0.1,0.2,0.2,0.3c-0.6,3-2.8,5.3-3.8,8
				c-0.4,0.9,0.2,1.4,0.7,2c0.6-0.1,1.2-0.2,1.8-0.3c7.5-1.3,14.9-2.9,22.6-1.7c1.3-0.9,3.1-0.4,4.4-1.6c1-0.7,2.1-1,3.3-1.4
				c1.8-0.6,3.6-1.2,4-3.5c-0.1,0-0.3-0.1-0.4-0.1c-0.1,0-0.2,0-0.3-0.1c0.1,0,0.2,0,0.3,0c2.4-2,2.6-3.4,0.1-6
				c-2.8-2.9-1.2-5.4,2.3-5.8c2.5-0.3,5-0.6,7.5-0.9c2.5-0.3,5-0.7,6.5-3.2c0.4-0.8,1.4-2,1.6-2.6"/>
			<path class="st6" d="M233,86.2c1.6-4,2.9-8.2,5-12c1.6-2.8,4.3-4.7,5.6-3.5c2.2,2.2,0.4,4.3-0.8,6.2c-2.4,3.8-5.3,7.1-9.2,9.5
				C233.4,86.4,233.2,86.4,233,86.2z"/>
			<path class="st22" d="M230.6,125.4c-1.5,3.3-3.1,6.5-5,9.6c-1.3,1.1-2.8,1.4-4.4,1.1c-1.7-0.5-2.5-2.4-4.2-2.9
				c-1-0.5-2.1-0.2-3.2-0.4c-0.4-0.2-0.6-0.6-0.6-1.1c0.3-1.1,1.5-1,2.1-1.5c5.3-1.3,10.3-3.2,15.2-5.7
				C230.5,124.9,230.5,125.1,230.6,125.4z"/>
			<path class="st23" d="M217,108.7c1.6-4.9,1.4-9.7,0.1-14.6c0.7-0.6,0.5-1.4,0.4-2.2c-0.2-1.4,0.4-3.1,1.3-3.3
				c1.5-0.3,2.9,0.6,3.1,2.5c-2.8,0.1-3.3,0.7-2.7,3.5c0.8,3.6,2.9,6.7,3.9,10.2c0.2,2.7-1.8,4.7-2.5,7.1l0,0
				c-0.9,1-0.6,2.8-2.1,3.4c-0.5,0.1-1-0.1-1.3-0.5C216.5,112.7,216.8,110.7,217,108.7z"/>
			<path class="st24" d="M230.4,124.6c-4.2,4.1-9.7,5.1-15.2,6.2c-0.6,0.2-0.8-0.1-0.6-0.6c3.7-2.8,7-6.3,11.5-7.8
				C228.1,121.7,230.3,121.3,230.4,124.6z"/>
			<path class="st25" d="M220.7,116.7c3.2-2.4,6.4-5.1,10.2-6.6c1.6-0.6,3.6-1.4,4.5,0.8c0.8,1.9-0.9,2.9-2.4,3.6
				c-4,2-8.4,2.8-12.8,3.5c-0.3,0.1-0.7,0.1-0.7-0.2C219.4,116.9,220.4,117.1,220.7,116.7z"/>
			<path class="st24" d="M225.6,104.5c3.1-2.3,6.1-4.7,9.8-5.9c1.2-0.4,2.8-0.7,3.4,0.9c0.6,1.5-0.8,2.1-1.8,2.7
				c-3.1,2-6.6,2.5-10.1,2.9C226.1,105.5,225.5,105.6,225.6,104.5z"/>
			<path class="st26" d="M222.4,104.5c-1.1-2.5-2.2-5-3.2-7.5c-0.5-1.3-1-2.7-0.9-4.1c0.1-1-0.2-2.1,0.9-2.8c1.3-0.8,2,0.5,2.9,1
				c1.1,3.8,1.2,7.7,1,11.6c0.4,0.6,0.5,1.1,0.1,1.8C223,104.7,222.7,104.8,222.4,104.5z"/>
			<path class="st6" d="M231,94.1c2.8-2.2,5.9-3.8,9.2-5.1c1.4-0.5,2.8-0.4,3.4,0.9c0.7,1.7-0.7,2.3-1.9,2.9c-2.6,1.1-5.2,2.2-8.2,2
				C232.6,94.9,231.5,95.8,231,94.1z"/>
			<path class="st25" d="M226.8,92.3c-1.4-3-2.8-6-3.2-9.4c-0.2-1.5-0.2-3,1.7-3.4c1.8-0.4,2,1.2,2.3,2.5c0.9,3.4,0.3,6.8,0.4,10.3
				C227.6,92.7,227.2,92.7,226.8,92.3z"/>
			<path class="st27" d="M225.5,63.8c-0.6,1.2-0.4,3.1-2.5,2.9c-1.6-0.2-1.8-1.5-1.6-2.7c0.3-1.4,0.8-2.9,2.7-2.7
				C225.5,61.3,225.5,62.6,225.5,63.8z"/>
			<path class="st24" d="M259.5,84.8c-0.4,1.5-1,2.9-2.8,3.2c-1.1,0.2-1.8-0.5-1.7-1.6c0-1.7,1.1-2.8,2.7-3.2
				C258.8,82.9,259.3,83.7,259.5,84.8z"/>
			<path class="st28" d="M214.6,130.2c0.2,0.2,0.4,0.4,0.6,0.6c-0.6,0.4-1.3,0.7-1.9,1.1c-1.6-0.1-1.6-1.3-1.8-2.4
				c0-0.6,0.1-1.3,0.5-1.8c1.2-0.4,0.9,0.4,1,0.8c0.9-3,1.6-6.5,3.8-9.3c0.3-0.2,0.6-0.2,0.9,0c-0.3,2.8-1.8,5.1-2.6,7.7
				C214.8,127.9,213.5,128.9,214.6,130.2z"/>
			<path class="st29" d="M217.7,119.2c-0.2,0-0.4,0-0.6,0c-0.4-0.7-0.4-1.5-0.3-2.3c0.1-0.2,0.3-0.5,0.5-0.6
				c0.5-0.4,1.1-0.8,1.6-1.3c0.7-1,0.4-2.5,1.9-3.1c0.2,1.1-0.4,2.1-0.9,3c-0.4,0.9-0.5,1.7,0.9,1.8c0.1,0.6-1.3,0.5-0.6,1.3
				C219.3,118.4,218.5,118.8,217.7,119.2z"/>
			<path class="st30" d="M233,86.2c0.2,0,0.4,0,0.6,0.1c-0.2,2.1-1.7,3.5-2.6,5.3c-0.4,0.8-1.6,1.5-0.5,2.6c-0.6,1.6-1.3,0.9-1.9,0
				C230.1,91.5,231.5,88.8,233,86.2z"/>
			<path class="st31" d="M228.6,94.1c0.6,0.2,1.2,1,1.9,0c0.2,0,0.4,0,0.5-0.1c0.6,1,1.7,0.6,2.6,0.7c-2,1-4.6,0.2-6.1,2.4l0,0
				c0-1,0-2,0-3c0.2-0.3,0.4-0.3,0.6,0C228.3,94.1,228.5,94.1,228.6,94.1z"/>
			<path class="st32" d="M222.6,104.5c0.2,0,0.4,0,0.6,0c0.2-0.2,0.4-0.3,0.6-0.1c0.4,0.5,0.1,0.9,0,1.4c-0.8,2.2-1.6,4.3-3.1,6.1
				C220.7,109.2,223.3,107.3,222.6,104.5z"/>
			<path class="st33" d="M227.5,97.2c0,1.8-1,3.1-2,4.5C225.5,99.9,226.3,98.5,227.5,97.2C227.4,97.2,227.5,97.2,227.5,97.2z"/>
			<path class="st34" d="M223.8,105.8c-0.7-0.4-0.1-0.8-0.1-1.3c0.4-1.8,0.8,0.2,1.2,0c0.2,0,0.4,0,0.6,0c0.3,0.5,0.8,0.6,1.3,0.7
				C226,106.1,224.8,105.6,223.8,105.8z"/>
			<path class="st35" d="M225,104.5c-0.4,0.8-0.8-0.9-1.2,0c0,0-0.3,0-0.3,0s-0.3,0-0.3,0c0-0.6,0-1.2,0-1.8
				C224,103.1,225.5,102.9,225,104.5z"/>
			<path class="st36" d="M228.1,94.1c-0.2,0-0.4,0-0.6,0c-0.2-0.6-0.4-1.2-0.6-1.8c0.4,0,0.8,0,1.2,0
				C228,92.9,228.1,93.5,228.1,94.1z"/>
			<path class="st37" d="M209.1,80.1c0.2-0.3,0.4-0.5,0.6-0.8c0,1.1,0,2.2,0,3.3C208.7,82,209.3,81,209.1,80.1z"/>
			<path class="st38" d="M207.3,63.6c-0.4,0-0.6-0.1-0.5-0.6C207,63.2,207.2,63.4,207.3,63.6z"/>
			<path class="st39" d="M129.8,131.4c-2.4-6.3-2.6-12.9-1.8-19.5c0.4-0.8,0.5-1.6,0.6-2.4c0.3-6.1,1.9-11.9,3.7-17.7
				c0.1-1.1,1-1.4,1.8-1.8c0.8-0.4,1.6-0.8,2.5-1.3c4.2-2,8.6-2.9,13.2-2.7c0.9,0.9,0.1,1.7-0.2,2.5c-2.9,6.6,0,12.4,7.1,13.8
				c3.4,0.7,6.9,0.6,10.2-0.7c4.9-1.8,6.8-6.2,4.9-11.1c-0.5-1.2-1.7-2.4-0.8-3.9c5.6-0.3,10.9,0.3,15.6,3.8
				c2.8,4.8,3.4,10.3,4.2,15.7c1.4,9,2.1,18.1-1.5,26.9c-0.4,0.8-0.7,1.6-1.1,2.4c-0.4,0.7-0.8,1.3-1.6,1.5
				c-0.7,0.2-1.4,0.2-2.1,0.2c-16.7,0-33.4,0-50.1,0c-0.6,0-1.2,0-1.8-0.2c-1.9-0.7-2.3-2.5-3-4.1
				C129.3,132.3,129.4,131.8,129.8,131.4z"/>
			<path class="st9" d="M143.7,65.4c-1.2-4.4-2.4-8.9-2.3-13.5c0-1.2-0.1-2.4,0.5-3.5c1.4-3.5,5-4.2,7.6-6.1
				c0.9-0.6,1.8,0.1,2.4,0.7c3.7,3.1,8,4.8,12.6,5.8c2.6,0.6,5,1.8,7.4,2.9c3.8,1.7,5,5,5.3,8.9c0.2,1.3,0.1,2.5-0.3,3.7
				c0.3,4.4-2.5,7.5-4.9,10.7c-1,1.4-2.3,2.5-3.8,3.5c-5.6,3.4-11.1,3.7-16.6-0.2C147.7,74.9,144.7,70.8,143.7,65.4z"/>
			<path class="st40" d="M188.4,133.1c4.8-14.6,2-28.8-2.5-42.8c0.5-0.3,0.9-0.2,1.3,0.2c5.7,3.4,8.5,9,11.3,14.7
				c2.1,4.3,4.6,8.3,7,12.3c1,1.2,2.3,2.1,2.1,3.9c-0.1,0.2-0.2,0.2-0.4,0.2c0.2,0.3,0.4-0.2,0.6-0.1c2.1,2.4,3.5,5.1,4.4,8.1
				c0.4,0.8,0.8,1.5,1.2,2.3c0.1,0.3,0.3,0.5,0.4,0.8c1.7,1.1,1.8,3.2,3,4.6c0.3,0.7,0.5,1.4,0.8,2c0.3,1.4,1.3,2.7,0.8,4.2
				c0.4,2,0.8,4,1.2,6c0.1,1.1-0.5,1.1-1.2,0.7c-0.6,0-1.2,0-1.9,0c0.8-1-0.8-2,0-2.9c-0.4,0.9-0.3,1.9,0,2.9
				c-2.6,1.2-5.5,1.1-8.2,1.8c-2.1,0.5-3-0.4-2.9-2.5c0.2-2.2,0.5-4.4,0.7-6.6c0.9-0.4,0.6,0.7,1,0.8c-0.6-0.8,0.9-2.3-0.9-2.7
				c0-1.2-0.2-2.3-1.4-3c-0.5-0.7-1.3-0.7-2.1-0.9c-4-0.4-7.9,0.2-11.9-0.3c-0.6-0.2-1.1-0.6-1.5-1c-0.3-0.3-0.6-0.7-0.8-1.1
				C188.4,134.3,188.4,133.7,188.4,133.1z"/>
			<path class="st41" d="M187.2,90.5c-0.4-0.1-0.9-0.1-1.3-0.2c-4.8-2.3-10-2.9-15.2-3.6c-2.5-0.8-2.5-3.2-3.2-5.1
				c-0.2-1.4-0.1-2.7,0.6-3.9c4.8-3.3,7.1-8.2,8.9-13.4c1.3,6.3,5.7,10.9,9.2,16c1.7,2.5,2.2,5.4,2.4,8.3
				C188.7,89.6,188.4,90.3,187.2,90.5z"/>
			<path class="st42" d="M143.7,65.4c2,4.6,4.5,8.8,8.1,12.2c1.1,1.6,0.5,3.2,0.1,4.9c-0.5,1.4-0.5,3-2.1,3.7
				c-4.5,0.8-8.9,1.6-13.4,2.4c0.2-4.1,1.4-8,3.8-11.3c2-2.7,2.5-5.6,2.5-8.8C142.9,67.4,143.1,66.4,143.7,65.4z"/>
			<path class="st43" d="M177.3,60.5c-0.9-6.8-6-9.2-11.6-10.6c-5.3-1.4-10.5-2.9-14.6-6.8c-0.5-0.5-1-0.7-1.5-0.1
				c-2.2,2.2-5.5,3-7.6,5.4c0-3.4,1.8-5.7,4.3-7.6c1.6-1.2,3.1-2.6,4.5-4.4c4.4,8,12.3,10.8,19.9,13.9
				C176,52.4,177.5,54.8,177.3,60.5z"/>
			<path class="st22" d="M217,116.7c0.1,0.8,0.6,1.6,0.1,2.4c-1.3,3.3-2.5,6.6-3.8,10c-0.4-0.6-0.7-1.1-1.1-1.5
				c-1.2-4.2-2.2-8.4-1.9-12.9c1.4-1,2.9-2.1,4.3-3.1C216.5,112.8,216.9,114.7,217,116.7z"/>
			<path class="st44" d="M210.3,114.8c1.2,4.2,2.2,8.4,1.9,12.9c0,0.7-0.1,1.3-0.1,2c-1.6-2.7-3.2-5.4-4.8-8.1l0,0
				c-0.2-1.6-2-2.4-1.9-4.1C207.1,116.6,208.7,115.7,210.3,114.8z"/>
			<path class="st45" d="M217,116.7c-1.3-1.5-1.5-3.5-2.4-5.1c0.8-1,1.6-1.9,2.4-2.9c1.4,1.9,0.3,4.1,0.7,6.1c0.5,0.6,0.4,1.2,0,1.8
				C217.5,116.7,217.2,116.7,217,116.7z"/>
			<path class="st46" d="M134,89.8c-0.6,0.6-1.2,1.2-1.8,1.8c-0.5-0.7-1.3-0.5-1.9-0.6C131.3,90,132.6,89.7,134,89.8z"/>
			<path class="st46" d="M128.5,92.1c0.1,1.3-0.8,1.4-1.7,1.4C127.3,93,127.9,92.6,128.5,92.1z"/>
			<path class="st47" d="M165.1,230.3c5.4-0.1,10.4-2.4,15.7-3.1c-1.9,3.4-5.5,3.2-8.6,4.2C169.8,231.1,167.4,230.7,165.1,230.3z"/>
			<path class="st48" d="M144.4,231c0.7-0.1,1.4-0.1,1.9,0.5c-0.3,0.4-0.7,0.6-1.2,0.5C144.9,231.6,144.6,231.3,144.4,231z"/>
			<path class="st49" d="M267.8,197.7c0.9,0.7,1.6,1.4,1.8,2.6C268.1,200,266.9,199.6,267.8,197.7z"/>
			<g>
				<path class="st4" d="M79.1,174c0.7-1.7-3.5-10.1-5.1-6c0-1.1-0.1-2.5-0.1-2.9c0.7,0,1.7-3.5-1.4-3.2
					c-6.3,15.3-12.6-9.4-23.9-7.5c0,0.1-0.1,0.2-0.1,0.2c0-0.1,0-0.3,0-0.4c-13.2,21.4-26.8-9-40.2,9.5c-1.2,1.5-0.9,0.7-0.5,5.2
					c3.6,9.6,16.6,3.7,24.4,10c0.8,2.1-2.2,3.1-2,9.2c0,0,0,0,0,0c5.5,15,23.5-9.7,22.6,14.9c0.1,0,0.2,0,0.3,0
					c0.3,0.3,0.6,0.7,0.9,1c4.9,1.1,9-1.3,13.1-3.4c0.8-0.4,0.4-1.2,0.1-1.8c0.5-0.1,1.1-0.3,1.6-0.4c1-0.7-0.8,0,3-3.6
					c-2.8-3.9-6.3-12.4-0.5-17.2v0C73.5,175.9,76.1,174.4,79.1,174z"/>
				<path class="st4" d="M7.8,169.1C7.8,169,7.8,169,7.8,169.1C7.8,169,7.8,169,7.8,169.1L7.8,169.1z"/>
			</g>
			<path class="st50" d="M259.2,191.2c-2.9,0-5.7,0-8.6-0.1c0.5-0.7,1.2-0.5,1.9-0.6c0.6,0,1.2,0,1.8,0
				C255.9,190.8,257.7,190,259.2,191.2z"/>
			<path class="st51" d="M105.5,214.9c0-1.4-1.3-0.7-1.9-1.2c0,0,0,0,0,0 M92.5,208.3c-12-5-18.6-10.6-20.9-13.4
				c-1.2-0.3-1.6,0.6-2,1.5c0,0.9-0.6,1.3-1.4,1.4c-0.5,0.1-1.1,0.3-1.5,0.7c-0.3,1.5-1.4,2.4-2.8,3c-3.3,1.4-6.6,2.6-10.3,2.2
				c-2.8,0-5.3,1.4-8.1,1.5c-5.6,0.6-11.2,1.1-16.5,3.2c-0.8,0.4-1.6,0.8-2.5,1.2c-1.4,0.1-2.6,0.8-3.6,1.8
				c-2.9,1.4-5.3,3.4-7.5,6.5c33.9,0,67.4,0,100.8,0 M21.1,215.7C21.1,215.7,21.1,215.7,21.1,215.7L21.1,215.7z"/>
			<path class="st52" d="M48.6,148.5c1,0.5,1.8,1.2,1.8,2.4C49.5,150.3,48.6,149.7,48.6,148.5z"/>
			<path class="st53" d="M203.8,136.8c1-0.1,1.2,0.5,1,1.3c-29.3,0-58.5,0-87.8,0c-1.4,0-2.8,0-4.2,0.6c0.3-1.9,1.6-2.3,3.3-2.3
				c3.7,0,7.5-0.1,11.2-0.1c1.8-1.4,3.5,0.1,5.3,0.3c16.5,0,33,0,49.5,0c1.6,0,3.2,0.4,4.8,0.1c1.1-0.6,2.3-0.5,3.4-0.1
				C194.9,136.7,199.4,136.3,203.8,136.8z"/>
			<path class="st54" d="M131.6,136.8c-1.3-1-2.8,0-4.2-0.6c0.3-1,1.4-1.7,1.2-2.9c0.1-0.6,0.4-1,1.1-0.9c1.2,1,1.4,2.5,1.9,3.8
				c0.2,0.1,0.3,0.3,0.2,0.4C131.7,136.8,131.7,136.8,131.6,136.8z"/>
			<path class="st55" d="M129.7,132.4c-0.4,0.3-0.7,0.6-1.1,0.9c-0.7-1.3-0.6-2.1,1.1-2C129.7,131.7,129.7,132.1,129.7,132.4z"/>
			<path class="st56" d="M128.5,109.4c1.1,1.1,0,1.7-0.6,2.4C128,111,127.7,110,128.5,109.4z"/>
			<path class="st46" d="M130.7,93.8c-0.2,0.1-0.4,0.2-0.6,0.2c-0.3,0-0.6-0.1-0.4-0.5c0.1-0.2,0.4-0.4,0.7-0.4
				C130.6,93.1,130.9,93.3,130.7,93.8z"/>
			<path class="st0" d="M102.8,166.8l-0.2,0c0,0-0.2,0-0.2,0c-1.8-0.3-0.7-1.1-0.3-1.8C102.3,165.6,102.6,166.2,102.8,166.8z"/>
			<path class="st57" d="M184.5,140.4c-17.4,0-34.7,0-52.1,0c0-0.1,0-0.2,0-0.3c17.4,0,34.8,0,52.2,0
				C184.6,140.2,184.6,140.3,184.5,140.4z"/>
			<path class="st58" d="M206.2,141.1c1.1-0.3,2.6-0.9,1.6,1.3c-0.5,1.1-0.3,2.2,0,3.5c-1.7-0.8-0.6-2.4-1.7-3
				C206.2,142.3,206.2,141.7,206.2,141.1z"/>
			<path class="st59" d="M202.3,179c0,1.3,0.3,2.5-0.5,3.7c-0.1-0.5,0-1.2-0.3-1.4C199.7,179.8,201.6,179.6,202.3,179z"/>
			<path class="st60" d="M204.8,153.9c0,1.3,0.3,2.6-0.5,3.7C204.6,156.5,202.8,155,204.8,153.9z"/>
			<path class="st61" d="M218.3,150.3c0.4-0.2,0.8-0.5,1.2-0.7c2.4,2,2.2,2.7-1.3,5.6C218.3,153.5,218.3,151.9,218.3,150.3z"/>
			<path class="st62" d="M209.8,215.7C209.8,215.7,209.8,215.7,209.8,215.7L209.8,215.7c-2.2,0.7-4.4,1.5-6.6,2.2
				c33,0,65.9,0,99.8,0c-4.7-3.1-9.3-4.1-13.7-5.3c-6.1-1.7-12-3.8-16.5-8.6l0,0c-0.4-0.5-0.8-1-1.1-1.4c-0.2-0.7-0.6-1.2-1.3-1.6
				c0-0.2-0.1-0.4-0.2-0.5c-0.1-0.2-0.3-0.4-0.5-0.6c-0.8-0.4-1.4-1-1.3-2c0-0.3-0.1-0.5-0.1-0.8c-0.2-0.6-0.5-1-0.9-1.5
				c-2.1-2.1-4.3-4.2-7.5-4.4c-0.3,0-0.5,0-0.8,0.1c-2.8-0.5-5.5-0.3-8.3,0c0,0-0.1,0-0.1,0c-0.1-0.1-0.2-0.1-0.3-0.2
				c-0.3-0.1-0.5,0-0.7,0.1c-1.3,1.8-2.5,3.7-3.8,5.5c0,0,0,0,0,0c-0.9,0.8-1.7,1.6-2.6,2.5c0,0,0,0,0,0
				c-6.9,4.8-12.6,8.3-21.9,12.1 M291.8,215.3C291.8,215.3,291.8,215.3,291.8,215.3C291.8,215.3,291.8,215.3,291.8,215.3
				C291.8,215.3,291.8,215.3,291.8,215.3z"/>
			<path class="st63" d="M182.3,202.8c-15.5,0-30.9,0-46.4,0c0.7-0.9,1.7-0.6,2.5-0.6c13.8,0,27.5,0,41.3,0
				C180.6,202.2,181.6,201.9,182.3,202.8z"/>
			<path class="st64" d="M218.3,143.6c-0.5-1.4-1-2.9-1.5-4.3c0.5-2.1,2.2-3,4-3.7c1.6-0.2,3.1-0.4,4.7-0.6c2,2.1,1.2,3.8-0.8,5.3
				C222.8,141.7,220.7,142.8,218.3,143.6z"/>
			<path class="st65" d="M220.8,135.6c-0.8,1.8-3,2.1-4,3.7c-0.4-0.5-0.5-1-0.4-1.6c-0.6-1.8-0.5-3.5,0.7-5
				C219,132.7,219.5,134.7,220.8,135.6z"/>
			<path class="st66" d="M217.1,132.6c0.3,1.7-0.5,3.3-0.7,5c-1.3-1.4-2-3.2-2.6-4.9C214.9,132.1,215.9,131.6,217.1,132.6z"/>
			<path class="st67" d="M217.7,116.7c0-0.6,0-1.2,0-1.8c0.4,0,0.8,0,1.2,0C218.9,115.8,218.5,116.4,217.7,116.7z"/>
			<path class="st9" d="M149.8,86.2c0.5-1.3,1-2.5,1.4-3.8c0.6-1.2,1.6-0.8,2.4-0.4c4.4,2.1,8.7,2.2,13.1-0.1c0.5-0.2,1-0.3,1.5,0
				c0.8,1.6,1.1,3.5,2.5,4.8c0.8,1.8,2,3.6,2.3,5.6c0.9,4.6-1,7.8-5.3,9.7c-3.7,1.7-7.7,1.8-11.6,1C147.5,101,144.8,92.7,149.8,86.2
				z"/>
			<path class="st68" d="M131.6,136.8c0-0.2,0-0.4,0-0.6c18.5,0,37,0,55.5-0.1c0.2,0.1,0.2,0.3,0.2,0.4c0,0.2-0.1,0.2-0.1,0.2
				c-1.7,1.3-3.5-0.1-5.2-0.1C165.2,136.9,148.4,136.8,131.6,136.8z"/>
			<path class="st69" d="M187.2,136.8c0-0.2-0.1-0.4-0.1-0.6c0.2-0.4,0.4-0.8,0.6-1.3c0.1,0,0.2,0,0.3,0.1c0.5,0.3,1,0.6,1.6,0.2
				c0.5,0.1,0.6,0.5,0.7,1c0.2,0.2,0.2,0.3,0.1,0.5c-0.1,0.1-0.2,0.2-0.2,0.2C189.2,136.8,188.2,136.8,187.2,136.8z"/>
			<path class="st69" d="M188.4,133.1c0.4,0.3,0.7,0.7,0.6,1.3c-0.3,0.4-0.5,0.8-1.1,0.7c0,0-0.2-0.2-0.2-0.2
				C187.7,134.3,187.7,133.6,188.4,133.1z"/>
			<path class="st70" d="M168.2,81.9c-4.9,3.2-10,3.5-15.2,0.6c-0.6-0.3-1.1-0.4-1.7-0.1c0.2-1.6,0.4-3.2,0.6-4.8
				c2.7,1.5,5.4,2.7,8.7,2.6c2.9-0.1,5.2-1.1,7.5-2.5C168.2,79.1,168.2,80.5,168.2,81.9z"/>
			<path class="st68" d="M190.2,136.8c0-0.2,0.1-0.4,0.1-0.7c4.5,0.7,9.1-0.4,13.6,0.6C199.3,136.8,194.7,136.8,190.2,136.8z"/>
			<path class="st71" d="M216.5,150.3c-1.2-1.3-0.6-2.6,0.3-3.8C215.8,147.8,218.5,149.2,216.5,150.3
				C216.5,150.3,216.5,150.3,216.5,150.3z"/>
			<path class="st72" d="M209,146.7c0,1.1,0,2.3,0,3.4c-0.1,0-0.2,0-0.3,0c0-1.1,0-2.3,0-3.4C208.8,146.7,208.9,146.7,209,146.7z"/>
			<path class="st73" d="M187.9,135.1c0.4-0.2,0.7-0.5,1.1-0.7c0.2,0.3,0.4,0.5,0.6,0.8c-0.1,0.5-0.3,1-0.9,1
				C188,136.1,187.9,135.7,187.9,135.1z"/>
			<path class="st74" d="M192.7,101.1c-1.5-0.9-1.7-1.7-1.9-2.7C192.1,98.8,191.9,99.8,192.7,101.1z"/>
			<path class="st75" d="M207.6,136.6c1,0.6,0.9,1.3,0.6,2.7C208,137.9,207.8,137.3,207.6,136.6z"/>
			<path class="st76" d="M207.4,121.5c-0.4,0.7-0.8,1.3-1.7,1.5C205.4,121.4,206.6,121.7,207.4,121.5
				C207.4,121.5,207.4,121.5,207.4,121.5z"/>
			<path class="st77" d="M197.5,106.9c0.8,1.1,1.4,1.5,1.3,2.3C197.7,109.1,197.6,108.4,197.5,106.9z"/>
			<g>
				<path class="st78" d="M315.5,166.3h-0.6c-15.4,1.5-32.4,7-45.1,11.9l2.4-13.3l-0.5-0.1l-2.5,13.4l0.2,0
					c-11.2,4.3-19,8.1-19.2,8.2l0.2,0.4c0.1,0,0.9-0.5,2.4-1.2l-0.1,0.4l24.3,9l0.2-0.5l-24.2-9c5.1-2.4,17.2-8,31.9-12.5l-0.1,0.2
					l15.5,3.5l0.1-0.5l-15.1-3.4c9.3-2.9,19.6-5.4,29.7-6.5L315.5,166.3z"/>
				
					<rect x="241.1" y="172.4" transform="matrix(0.3109 -0.9504 0.9504 0.3109 3.68 350.3091)" class="st78" width="4.7" height="0.5"/>
			</g>
			<path class="st0" d="M250.3,136.5c15.3-11.4,29.5-20.1,29.7-20.2l-0.3-0.4c-0.3,0.2-20.4,12.4-38.9,27.3l0.5-24.9h-0.5l-0.5,25.3
				c-5.8,4.7-11.4,9.7-16.2,14.6l-2.1-16.2l-0.5,0.1l2.2,16.6c-5.2,5.4-9.2,10.7-11.4,15.6l0.5,0.2c2.1-4.9,6.2-10.2,11.3-15.5
				c1,0.2,6.8,1.7,12.5,3.1c9.2,2.2,11.9,2.8,12.7,2.8c0.3,0,0.3-0.1,0.4-0.2l-0.3-0.1l0-0.2c0,0,0,0-0.1,0
				c-1.3,0-15.3-3.4-24.8-5.8c4.9-5.1,10.6-10.1,16.2-14.7l25.6,2.2l0-0.5l-25.1-2.2C244.3,141,247.4,138.7,250.3,136.5z"/>
			<path class="st40" d="M128.5,92.1c0.4-0.6,0.9-1.2,1.8-1.1c0.8-0.3,1.6-0.6,2.2,0.4c0,3.8-1.6,7.3-2.2,11
				c-0.4,2.3-0.8,4.6-1.1,6.9c-0.3,0.9-0.4,1.9-0.3,2.8c-0.8,6.3-0.4,12.4,1.4,18.5c-0.1,1.1-1.5,1.8-1,3.1c-0.1,1.4-0.8,2.4-2.1,3
				c-3.4,0.7-6.8,0.2-10.2,0.4c-1.5,0.1-2.8,0.3-3.1,2.1c-0.7,3.9,0.7,7.7,0.4,11.6c-0.2,1.2-0.5,2.3-2,2.2
				c-4.2-0.3-8.5-0.4-12.4-2.6c-2.3-0.7-0.7-2.5-1.1-3.8c0.1-4.3,1.6-8.1,4.2-11.5l0.2-0.2c0.9-4.1,3.3-7.4,5.2-11
				c0.1-0.3,0.3-0.5,0.4-0.7c1.2-1.8,2-3.7,3-5.5c2.3-4.7,4.6-8.2,6.6-13c0.3-0.7,2.7-6,3.6-6.1c1.1-1.3,0.6,1,0.7-0.7
				c2.2-0.6,2.4-3.2,4.2-4.2C127.3,93,128.2,93,128.5,92.1z"/>
			<path class="st79" d="M201.9,185.1c-1.1,7.1-2.4,11.1-8.4,13.6c-1.1,0.5-2.1,1.2-3.2,1.8c-1.7,0.6-3.5,1-5.4,1
				c-17.7-0.2-35.3,0-53-0.2c-1.2,0-2.3-0.5-3.5-0.8c-3.5-1.6-6.4-4.1-9.7-6c-1.5-0.9-1.1-2.2-1.3-3.4c-0.2-1.7-0.4-3.4-0.6-5.1
				c-1.1-11.7-2.3-23.3-3.4-35c0.1-4.1-1.5-8-0.5-12.1c1-1.2,2.3-1.6,3.8-1.6c28.8,0.1,57.6,0,86.4,0.1c0.4,0,0.8,0.1,1.2,0.1
				c1.7,0.5,2.5,1.7,2.6,3.4c0,0.7,0.1,1.4,0,2.2c-0.4,2.1-0.6,4.3-0.8,6.5"/>
			<path class="st79" d="M205.1,158.2"/>
			<path class="st80" d="M131.6,200.4c0.8,2,3.1,1.2,4.3,2.4c0.6-0.4,1.4-0.3,2.1-0.3c14.1,0,28.2,0,42.3,0c0.7,0,1.4-0.1,2.1,0.3
				c0.6,0.2,1.9-0.5,1.2,1.1c-16.1,0-32.1,0.1-48.2,0.1c-2.7,0-4.7-2-6.9-3.5C129.5,200.4,130.6,200.4,131.6,200.4z"/>
			<path class="st81" d="M159.3,163.7c3.1,0,5.7,2.4,5.8,5.5c0.1,3.1-2.6,5.6-5.9,5.6c-3,0-5.6-2.6-5.6-5.6
				C153.6,166.2,156.2,163.7,159.3,163.7z"/>
			<g>
				<path class="st11" d="M85.2,168.6c-1.5,0-2.6,0.8-2.8,2.1c-0.3,1.5,1.2,2.1,2.3,2.7c0.4,0.2,0.9,0.4,1.3,0.6
					c2.4,0.2,4.7,0.9,7.1,0.6c0.7-1.5,2.2-2.3,3.2-3.5C92.5,170.6,89.2,167.8,85.2,168.6z"/>
				<path class="st11" d="M93.8,160.8c0.3-0.1,0.4-0.5,0.6-0.7c0.1-0.7,0-1.4,0.6-1.9c-0.1-4.1,1.1-8.2,0.7-12.4
					c-0.2-1.8-0.3-4-2.7-4c-2.7-0.1-2.8,2.2-2.8,4.2c0,4.8,1.3,9.4,2.8,13.9c-3-3.5-6.5-7.3-10.3-11c0.4-3.8,0.8-7.5,1.1-11.3
					c0.2-2.1-0.3-4.1-1.5-5.7c-1.1-1.5-2.4-1.4-3.3,0.4c-0.6,1.2-0.6,2.4-0.4,3.6c0.6,3.7,1.6,7.3,3,10.8c0.4,0.4,0.3,0.8,0.2,1.3
					c-2.8-2.8-5.8-5.7-8.7-8.4c0-2.7,0-5.3,0.5-8c0.5-2.6,0.1-5.2-0.6-7.8c-0.3-1.3-1.2-2.6-2.6-2.6c-1.6,0-1.9,1.6-2.1,2.9
					c-0.1,0.6-0.1,1.2,0.1,1.8c1,3.5,2,7,3,10.4c-0.1,0.6,0,1.1,0.2,1.6c0.1,0.1,0.1,0.2,0.2,0.3c-2.8-2.6-5.7-5.2-8.3-7.5
					c0-1-0.1-1.9-0.1-2.9c0-3.4,0.1-6.9,0-10.3c-0.1-1.5-0.7-3.4-2.4-3.4c-2,0.1-1.9,2.1-1.8,3.6c0.2,3.1,1.3,6.1,2.4,9
					c0.4,0.2,0.2,0.8,0.5,1c-0.4,0.4-0.6,0.8-0.5,1.3c0,0,0,0,0,0.1c-2.6-2.3-5.1-4.4-7.2-6.3c0.1,0,0.3,0,0.4,0
					c-0.1-3.7,0.5-7.5-0.5-11.2c-0.5-1.8-0.8-4.2-3.1-3.7c-2.4,0.5-1.4,3.1-1.1,4.7c0.6,3.2,2.4,6,3.5,9c0.2,0.2,0.2,0.6,0.3,0.9
					c-3.2-2.7-5.7-4.8-7.2-6.1c0.1-0.1,0.1-0.1,0.2-0.2c-22.9-24.6-15.6-1.2-5.5-1.2c3.7,1.8,4,2.5,4.6,2c1.4,1.2,3.9,3.2,6.9,5.8
					c-0.1,0-0.2,0-0.3,0c-3.8-1.3-7.6-2-11.6-1.2c-1.7,1-1.6,2.2-0.6,3.6c4.5,0.5,8.9-0.3,13.2-1.7c2.3,1.9,4.8,4.2,7.6,6.6
					c-0.1,0-0.2,0-0.3,0c-1-0.2-2-0.5-2.9-0.7c-2.9-0.8-5.9-1.2-9-1c-1.2,0.1-2.3,0.6-2.6,1.7c-0.4,1.5,1.1,1.7,2.1,2.1
					c1.6,0.7,3.3,0.4,5.1,0.2c2.9-0.3,5.6-1.4,8.6-1.5c2.7,2.4,5.5,4.9,8.4,7.6c-3.2-0.6-6.3-1.3-9.5-1.8c-2.1-0.3-4.8-0.3-5.2,2.2
					c-0.4,2.7,2.6,2.2,4.3,2.8c0.6,0.2,1.4,0.1,2.1,0c3.3-0.5,6.7-1.1,10-1.7c3,2.8,6,5.7,8.9,8.6c-3.4-1.2-7-2.1-10.6-2.5
					c-2-0.2-4.8-0.4-4.8,2.2c0,2.5,2.8,2.5,4.8,2.6c4,0.3,7.9-0.5,11.8-1.2c4.2,4.2,8.1,8.4,11.2,12.2c-1.6-0.5-4.2-1.1-5.8-1.6
					c-4.1-1.3-8.1-3.1-12.6-2.8c-3,0.2-3.7,1.4-2.6,4.4c1,0.1,1.8,0.5,1.8,1.7c2.6-1.2,5.2-0.6,7.8,0.2c3.4-1.2,8.4-0.8,11.9-1.3
					c2,2.4,3.6,4.7,4.9,6.8l0.9-0.5C98.2,166.3,96.2,163.6,93.8,160.8z"/>
			</g>
			<g>
				<path class="st79" d="M108.9,122.7l-0.3,0.4c1.2-10.2-29.8-57.1-30.1-57.6l0.1-0.4l0.4,0.3C79,65.5,86.7,77,94.3,90.1
					C104.5,107.7,109.4,118.3,108.9,122.7z"/>
			</g>
			<g>
				<polygon class="st79" points="93,88 92.5,88 92.9,76.6 93.3,76.9 				"/>
			</g>
			<g>
				
					<rect x="91.6" y="89.7" transform="matrix(0.2544 -0.9671 0.9671 0.2544 -25.5839 161.323)" class="st79" width="0.5" height="15"/>
			</g>
			<g>
				<polygon class="st79" points="105.7,111.9 105.3,111.6 109,90.4 109.5,90.7 				"/>
			</g>
			<g>
				<polygon class="st79" points="107.4,125.3 90.7,122.2 90.5,121.7 107.6,125 				"/>
			</g>
		</g>
		<g>
			<path class="st82" d="M68.3,181.9c-18.8-11.4-60.5-16.6-60.9-16.7l0.1-0.5c0.4,0.1,42.2,5.3,61.1,16.8L68.3,181.9z"/>
		</g>
		<g>
			<path class="st82" d="M59.5,177.5c-0.1,0-0.2-0.1-0.2-0.1l-10.5-22.5c-0.1-0.1,0-0.3,0.1-0.3c0.1-0.1,0.3,0,0.3,0.1l10.5,22.5
				c0.1,0.1,0,0.3-0.1,0.3C59.6,177.5,59.6,177.5,59.5,177.5z"/>
		</g>
		<g>
			<path class="st82" d="M32,191c-0.1,0-0.2-0.1-0.2-0.1c-0.1-0.1,0-0.3,0.1-0.3l27.2-13.2c0.1-0.1,0.3,0,0.3,0.1
				c0.1,0.1,0,0.3-0.1,0.3L32.1,191C32.1,191,32.1,191,32,191z"/>
		</g>
		<g>
			<path class="st82" d="M53,203c-0.1,0-0.2,0-0.2-0.1c-0.1-0.1,0-0.3,0.1-0.3l17-10c0.1-0.1,0.3,0,0.3,0.1c0.1,0.1,0,0.3-0.1,0.3
				l-17,10C53.1,203,53.1,203,53,203z"/>
		</g>
		<g>
			<path class="st82" d="M75.8,175.3C75.7,175.3,75.7,175.3,75.8,175.3c-0.2-0.1-0.2-0.2-0.2-0.3l3.6-11.5c0-0.1,0.2-0.2,0.3-0.2
				c0.1,0,0.2,0.2,0.1,0.3L76,175.1C75.9,175.2,75.8,175.3,75.8,175.3z"/>
		</g>
	</g>
</g>
</svg>
