<?xml version="1.0" encoding="UTF-8"?><svg id="Capa_1" xmlns="http://www.w3.org/2000/svg" viewBox="0 0 300 300"><defs><style>.cls-1{fill:#f0f0f0;}</style></defs><path class="cls-1" d="M230.55,52.22c.07,0,.15,0,.22,0,9.88,0,17.88,8.07,17.81,18.07-.08,9.88-8.21,17.94-18.2,17.94-10-.12-17.88-8.19-17.81-18.06.08-9.92,8.09-17.95,17.98-17.95Z"/><path class="cls-1" d="M298.16,75.34c2.23,23.61,3.67,135.13-3.28,161.27-9.29,34.2-31.61,54.44-66.22,59.98-12.93,2.08-47.86,3.34-82.74,3.34s-71.36-1.32-83.34-4.43c-34.02-8.79-54.32-30.95-59.72-65.4C-1.15,204.82-1.58,87.27,5.72,61.73,15.25,28.49,37.44,8.98,71.08,3.44,86.33.94,116.14.07,146.24.07c27.99,0,56.24.76,73.24,1.69,20.59,1.08,39.45,7.71,54.75,22.4,14.59,13.97,22.04,31.43,23.94,51.19ZM269.32,225.17c4.3-26.38,4.31-122.61,1.85-147.3-2.69-26.38-18.82-43.72-44.92-47.81-12.92-1.96-44.03-2.83-74.99-2.83s-59.58.81-72.67,2.23c-26.16,3.01-43.75,19.15-47.92,45.16-4.3,27.58-4.25,130.68-1.03,151.39,3.33,21.56,15.5,36.37,37.01,42.39,11.64,3.26,46.49,4.43,80.66,4.43,31.46,0,62.35-.99,73.96-2.26,26.4-2.89,43.87-19.15,48.04-45.41"/><path class="cls-1" d="M150.64,73.18c42.39,0,76.58,34.45,76.25,76.96-.32,42.39-35.03,76.84-77.55,76.84s-76.58-34.45-76.25-76.96c.32-42.52,35.03-76.96,77.55-76.84ZM149.52,199.76c27.26,0,49.7-21.95,50.15-49.26.45-27.58-21.42-49.98-48.88-50.22-.15,0-.3,0-.45,0-27.26,0-49.7,21.95-50.15,49.26-.45,27.46,21.42,49.98,48.88,50.22.15,0,.3,0,.45,0"/></svg>