<?xml version="1.0" encoding="UTF-8"?><svg id="Capa_1" xmlns="http://www.w3.org/2000/svg" viewBox="0 0 300 300"><defs><style>.cls-1{fill:#f0f0f0;}</style></defs><path class="cls-1" d="M275.53,269.4l-98.23-142.71-11.11-16.14L95.92,8.46l-5.82-8.46H3.75l21.06,30.6,93.43,135.75,11.11,16.12,75.07,109.07,5.82,8.45h86.35l-21.06-30.6ZM220.5,280.47l-77.99-113.32-11.11-16.13L40.9,19.53h38.93l73.19,106.34,11.11,16.13,95.3,138.47h-38.93Z"/><polygon class="cls-1" points="131.41 151.02 142.51 167.15 129.35 182.48 28.32 300 3.41 300 118.24 166.35 131.41 151.02"/><polygon class="cls-1" points="286.19 0 177.29 126.69 164.13 142 153.02 125.87 166.19 110.55 239.95 24.69 261.28 0 286.19 0"/></svg>