<?xml version="1.0" encoding="utf-8"?>
<!-- Generator: Adobe Illustrator 24.0.0, SVG Export Plug-In . SVG Version: 6.00 Build 0)  -->
<svg version="1.1" id="Capa_1" xmlns="http://www.w3.org/2000/svg" xmlns:xlink="http://www.w3.org/1999/xlink" x="0px" y="0px"
	 viewBox="0 0 300 300" style="enable-background:new 0 0 300 300;" xml:space="preserve">
<style type="text/css">
	.st0{fill:#F0F0F0;}
</style>
<title>youtube_stream_video</title>
<path class="st0" d="M227,56.4c-51.1-8.5-103.4-8.5-154.5,0C43.2,62.5,25,81.4,25,106v87.5c0,25,18.2,43.6,48,50
	c25.4,4.3,51.2,6.5,77,6.5c25.9,0,51.7-2.1,77.2-6.4c29-5.5,47.8-25,47.8-50v-87.5C275,81.2,256.2,61.8,227,56.4z M190.8,155.6
	l-62.5,37.5c-1,0.6-2.1,0.9-3.2,0.9c-1.1,0-2.2-0.3-3.1-0.8c-2-1.2-3.2-3.4-3.1-5.8v-75c0-2.3,1.2-4.3,3.1-5.5c2-1.1,4.4-1.1,6.4,0
	l62.5,37.5c3,1.9,3.8,5.8,1.9,8.8c-0.5,0.8-1.2,1.4-1.9,1.9V155.6z"/>
</svg>
