<?xml version="1.0" encoding="UTF-8"?><svg id="Capa_1" xmlns="http://www.w3.org/2000/svg" xmlns:xlink="http://www.w3.org/1999/xlink" viewBox="0 0 256 256"><defs><style>.cls-1{fill:none;}.cls-2{fill:#fff;}.cls-3{fill:url(#Degradado_sin_nombre_2);}.cls-4{clip-path:url(#clippath);}</style><clipPath id="clippath"><rect id="bg" class="cls-1" x="0" width="256" height="256" rx="40" ry="40"/></clipPath><radialGradient id="Degradado_sin_nombre_2" cx="-6.41" cy="256.85" fx="-6.41" fy="256.85" r="473.32" gradientUnits="userSpaceOnUse"><stop offset="0" stop-color="#f5ec53"/><stop offset=".24" stop-color="#e48244"/><stop offset=".4" stop-color="#d05667"/><stop offset=".49" stop-color="#c84278"/><stop offset="1" stop-color="#192cfa"/></radialGradient></defs><g class="cls-4"><rect class="cls-3" x="0" width="256" height="256"/></g><path class="cls-2" d="M128,64.97c20.53,0,22.96.08,31.07.45,7.5.34,11.57,1.59,14.28,2.65,3.59,1.4,6.15,3.06,8.84,5.75,2.69,2.69,4.36,5.25,5.75,8.84,1.05,2.71,2.31,6.78,2.65,14.28.37,8.11.45,10.54.45,31.07s-.08,22.96-.45,31.07c-.34,7.5-1.59,11.57-2.65,14.28-1.4,3.59-3.06,6.15-5.75,8.84-2.69,2.69-5.25,4.36-8.84,5.75-2.71,1.05-6.78,2.31-14.28,2.65-8.11.37-10.54.45-31.07.45s-22.96-.08-31.07-.45c-7.5-.34-11.57-1.59-14.28-2.65-3.59-1.4-6.15-3.06-8.84-5.75-2.69-2.69-4.36-5.25-5.75-8.84-1.05-2.71-2.31-6.78-2.65-14.28-.37-8.11-.45-10.54-.45-31.07s.08-22.96.45-31.07c.34-7.5,1.6-11.57,2.65-14.28,1.4-3.59,3.06-6.15,5.75-8.84,2.69-2.69,5.25-4.36,8.84-5.75,2.71-1.05,6.78-2.31,14.28-2.65,8.11-.37,10.54-.45,31.07-.45M128,51.11c-20.88,0-23.5.09-31.7.46-8.18.37-13.77,1.67-18.66,3.57-5.06,1.97-9.34,4.59-13.62,8.87-4.27,4.27-6.9,8.56-8.87,13.62-1.9,4.89-3.2,10.48-3.57,18.66-.37,8.2-.46,10.82-.46,31.7s.09,23.5.46,31.7c.37,8.18,1.67,13.77,3.57,18.66,1.96,5.06,4.59,9.34,8.87,13.62,4.27,4.27,8.56,6.9,13.62,8.87,4.89,1.9,10.48,3.2,18.66,3.57,8.2.37,10.82.46,31.7.46s23.5-.09,31.7-.46c8.18-.37,13.77-1.67,18.66-3.57,5.06-1.97,9.34-4.59,13.62-8.87,4.27-4.27,6.9-8.56,8.87-13.62,1.9-4.89,3.2-10.48,3.57-18.66.37-8.2.46-10.82.46-31.7s-.09-23.5-.46-31.7c-.37-8.18-1.67-13.77-3.57-18.66-1.97-5.06-4.59-9.34-8.87-13.62-4.27-4.28-8.56-6.9-13.62-8.87-4.89-1.9-10.48-3.2-18.66-3.57-8.2-.37-10.82-.46-31.7-.46"/><path class="cls-2" d="M128,88.52c-21.8,0-39.48,17.68-39.48,39.48s17.68,39.48,39.48,39.48,39.48-17.68,39.48-39.48-17.68-39.48-39.48-39.48M128,153.63c-14.16,0-25.63-11.48-25.63-25.63s11.47-25.63,25.63-25.63,25.63,11.47,25.63,25.63-11.47,25.63-25.63,25.63"/><path class="cls-2" d="M178.27,86.96c0,5.1-4.13,9.23-9.23,9.23s-9.23-4.13-9.23-9.23,4.13-9.23,9.23-9.23,9.23,4.13,9.23,9.23"/></svg>