<?xml version="1.0" encoding="UTF-8"?><svg id="Capa_1" xmlns="http://www.w3.org/2000/svg" viewBox="0 0 256 256"><defs><style>.cls-1{fill:#050505;}.cls-2{fill:#fff;}</style></defs><rect id="bg" class="cls-1" x="0" width="256" height="256" rx="40" ry="40"/><path class="cls-2" d="M192.34,189.2l-50.35-73.15-5.69-8.27-36.02-52.33-2.99-4.34h-44.26l10.79,15.69,47.89,69.59,5.69,8.26,38.48,55.91,2.99,4.33h44.26l-10.79-15.69ZM164.14,194.88l-39.98-58.09-5.69-8.27-46.39-67.4h19.95l37.52,54.51,5.69,8.27,48.85,70.98h-19.95Z"/><polygon class="cls-2" points="118.47 128.52 124.16 136.79 117.41 144.65 65.63 204.89 52.86 204.89 111.72 136.38 118.47 128.52"/><polygon class="cls-2" points="197.81 51.11 141.99 116.05 135.24 123.9 129.55 115.63 136.3 107.78 174.11 63.77 185.04 51.11 197.81 51.11"/></svg>