<?xml version="1.0" encoding="utf-8"?>
<!-- Generator: Adobe Illustrator 24.0.0, SVG Export Plug-In . SVG Version: 6.00 Build 0)  -->
<svg version="1.1" id="Capa_1" xmlns="http://www.w3.org/2000/svg" xmlns:xlink="http://www.w3.org/1999/xlink" x="0px" y="0px"
	 viewBox="0 0 200 200" style="enable-background:new 0 0 200 200;" xml:space="preserve">
<style type="text/css">
	.st0{fill:#F0F0F0;}
	.st1{fill:#FFFFFF;}
	.st2{fill:#5CC0CB;}
	.st3{fill:#2D2A3D;}
</style>
<g>
	<g>
		<g>
			<path class="st0" d="M83.3,170.1c-45,0-81.6-36.6-81.6-81.6S38.3,6.9,83.3,6.9s81.6,36.6,81.6,81.6S128.2,170.1,83.3,170.1z
				 M83.3,21.3c-37.1,0-67.2,30.1-67.2,67.2s30.1,67.2,67.2,67.2s67.2-30.1,67.2-67.2S120.3,21.3,83.3,21.3z"/>
		</g>
		<g>
			<path class="st0" d="M83.3,129.3c-22.5,0-40.8-18.3-40.8-40.8s18.3-40.8,40.8-40.8s40.8,18.3,40.8,40.8S105.8,129.3,83.3,129.3z
				 M83.3,57.3c-17.2,0-31.2,14-31.2,31.2s14,31.2,31.2,31.2s31.2-14,31.2-31.2S100.5,57.3,83.3,57.3z"/>
		</g>
		<g>
			<circle class="st1" cx="83.3" cy="88.5" r="14.4"/>
		</g>
	</g>
	<g>
		<title></title>
		<g>
			<path class="st2" d="M165.3,184.7l-6.5-5.3l26.2-32.3l6.5,5.3c3.2,2.6,3.3,7.9,0.1,11.8l-14.7,18.2
				C173.7,186.3,168.5,187.3,165.3,184.7z"/>
		</g>
		<g>
			
				<rect x="129.2" y="93.4" transform="matrix(0.6295 -0.777 0.777 0.6295 -52.209 154.1868)" class="st1" width="12.8" height="76.8"/>
		</g>
		<g>
			
				<rect x="119.1" y="105.9" transform="matrix(0.6295 -0.777 0.777 0.6295 -65.5989 150.9673)" class="st1" width="12.8" height="76.8"/>
		</g>
		<g>
			
				<rect x="137.2" y="83.5" transform="matrix(0.6295 -0.777 0.777 0.6295 -41.497 156.7623)" class="st1" width="12.8" height="76.8"/>
		</g>
		<g>
			<polygon class="st1" points="118.1,92.4 84,91.2 92.3,124.3 			"/>
		</g>
		<g>
			<polygon class="st2" points="87.4,104.9 98.1,91.6 83.9,91.1 			"/>
		</g>
		<g>
			<path class="st3" d="M180.1,183.7l14.3-17.7c0,0,3.9-11.5-0.7-15.8L119.5,90c-0.5,0.2-2.6,2-2.6,2s-0.9-0.7-1-0.8
				c-0.1,0-0.3-0.1-0.4-0.1l-18.4-0.7L84,90c-1.2,0-2.1,0.9-2.2,2c0,0.2,0,0.4,0.1,0.6l3.2,12.7l4.5,17.8c0,0.1,0.1,0.3,0.2,0.4
				l1,0.8c0,0-0.4,1.2-1.4,3l74.2,60.2C169.6,189.8,180.1,183.7,180.1,183.7z M107.8,105.2l57.2,46.3l-6,7.5l-57.2-46.3L107.8,105.2
				z M115.8,95.2l57.2,46.3l-6,7.5l-57.2-46.3L115.8,95.2z M155.8,172.9l22.2-27.3l2.5,2L158.3,175L155.8,172.9z M156.9,161.5
				l-6,7.5l-57.2-46.3l6-7.5L156.9,161.5z M191.1,165l-13.6,16.7c-2.4,2.9-6.7,3.4-9.6,1l-4.6-3.8l22.2-27.3l4.6,3.8
				C193,157.8,193.4,162.1,191.1,165z M92.8,93.2l-5,6.2l-1.6-6.4L92.8,93.2z M88.1,104l9.3-11.5l15.3,1.4l-20.1,24.7L88.1,104z"/>
		</g>
		<g>
			<circle class="st3" cx="184.4" cy="161.6" r="2.3"/>
		</g>
	</g>
</g>
</svg>
