<?xml version="1.0" encoding="utf-8"?>
<!-- Generator: Adobe Illustrator 24.0.0, SVG Export Plug-In . SVG Version: 6.00 Build 0)  -->
<svg version="1.1" id="Capa_1" xmlns:serif="http://www.serif.com/"
	 xmlns="http://www.w3.org/2000/svg" xmlns:xlink="http://www.w3.org/1999/xlink" x="0px" y="0px" viewBox="0 0 552 478.5"
	 style="enable-background:new 0 0 552 478.5;" xml:space="preserve">
<style type="text/css">
	.st0{fill:#FFFFFF;}
</style>
<g>
	<path class="st0" d="M505.1,48.7L505.1,48.7c-64.9-64.9-165.7-64.9-228.4,0l0,0l0,0C214-14,111-14,48.3,48.7
		c-60.5,60.4-64.9,154.5-9,219.4c29.1,33.6,58.2,62.7,89.6,91.8c13.4-6.7,31.3-13.4,47-22.4l0,0c0,0,67.2-29.1,109.7-91.8
		c-53.7,38.1-105.2,53.7-127.6,58.2c-9-33.6-2.2-69.4,22.4-94c33.6-33.6,129.9-42.5,163.5-96.3c4.5-6.7,13.4-6.7,17.9,0
		c15.7,35.8,42.5,120.9-15.7,208.2c-29.1,44.8-94,64.9-141.1,40.3c-15.7,11.2-31.3,22.4-42.5,29.1c35.8,31.3,73.9,60.5,114.2,87.3
		c91.8-58.2,170.2-129.9,239.6-210.5C567.7,203.2,563.3,109.1,505.1,48.7z"/>
</g>
</svg>
