<?xml version="1.0" encoding="utf-8"?>
<!-- Generator: Adobe Illustrator 24.0.0, SVG Export Plug-In . SVG Version: 6.00 Build 0)  -->
<svg version="1.1" id="Capa_1" xmlns="http://www.w3.org/2000/svg" xmlns:xlink="http://www.w3.org/1999/xlink" x="0px" y="0px"
	 viewBox="0 0 200 200" style="enable-background:new 0 0 200 200;" xml:space="preserve">
<style type="text/css">
	.st0{fill:#FFFFFF;}
	.st1{fill-rule:evenodd;clip-rule:evenodd;fill:#FFFFFF;}
</style>
<g>
	<g>
		<g>
			<g>
				<ellipse class="st0" cx="134.5" cy="17.7" rx="17.7" ry="17.7"/>
				<path class="st0" d="M99.1,112.3C99.2,112.3,99.1,112.3,99.1,112.3c0,0,6.2-4.3,6.1-7.7c-0.1-1.6-0.1-3.2-0.1-4.7
					c0-19.3,4.2-30.8,9-37.5v24.2v14.9v70c-0.9,5.4,3.4,9.7,8.8,9.7c5.4,0,9.7-4.4,9.3-9.7v-63.6h4.5v63.9c0,4.3,2.7,8.5,6.9,9.5
					c5.9,1.5,11.2-3.3,11.2-9.5V162h-12.8c-2.9,0-5.3-2.4-5.3-5.3v-39.1c0-2.9,2.4-5.3,5.3-5.3h12.8V86.4c1.1-0.5,1-0.9,4.5-1.4
					V62.5c-3.5,0.1-3.5,0.1-3.5,0.2c3.9,6.8,7.9,18.2,7.9,37.2c0,1.5,0,3.1-0.1,4.8c0,0.7,0.1,1.4,0.3,2c-2.8,1.8-4.8,4.8-5.2,8.4
					c-0.1,0.4-0.1,0.9-0.1,1.3c0,0.1,0,0.5,0,0.5h-2.1h-11.7c-2,0-3.5,1.6-3.5,3.5v38.1c0,2,1.6,3.5,3.5,3.5h11.7h39.9
					c2,0,3.5-1.6,3.5-3.5v-38.1c0-2-1.6-3.5-3.5-3.5h-13.9c0-0.1,0-0.3,0-0.4c0-0.4,0-0.9-0.1-1.3c-0.4-3.5-2.4-6.5-5.3-8.2
					c0.1-0.4,0.2-0.9,0.2-1.4c0.1-1.7,0.1-3.4,0.1-5c0-21.2-4.8-34.8-10.1-43.3c-5.3-8.5-10.8-11.5-11.6-11.9
					c-0.8-0.4-1.6-0.6-2.4-0.6c-0.5-0.1-0.9-0.2-1.4-0.2h-32.9c-0.5,0-1,0.1-1.4,0.2c-0.9,0-1.8,0.2-2.6,0.7
					c-0.8,0.4-6.4,3.5-11.8,12.1c-5.3,8.6-10.3,22.4-10.3,43.9c0,1.6,0,3.3,0.1,5C93.1,109.7,95.8,112.3,99.1,112.3z M178.9,115
					c0.1,0.4,0.1,0.9,0.1,1.3c0,0.1,0,0.3,0,0.4h-17.7c0-0.1,0-0.3,0-0.4c0-0.5,0-0.9,0.1-1.3c0.4-2.5,1.8-4.7,3.8-6
					c1.1,1.3,2.7,2.1,4.5,2.1c0.1,0,0.1,0,0.2,0c1.9,0,3.7-0.9,4.9-2.3C176.9,110.2,178.5,112.4,178.9,115z M134.5,96.5l-1.8-2.3
					l-5.6-7.1l1.2-8.8l3.1-22.9c1,0.4,2.1,0.6,3.2,0.6h0c0,0,0,0,0,0c1.1,0,2.1-0.2,3.2-0.6l3.1,23l1.2,8.7l-5.5,7L134.5,96.5z
					 M131.5,44.5h3h3l1.5,5.9l-0.2,0.4c-1.2,1-2.7,1.5-4.3,1.5c-1.5,0-3-0.5-4.3-1.5l-0.2-0.4L131.5,44.5z"/>
			</g>
		</g>
	</g>
	<g>
		<g>
			<g>
				<g>
					<path class="st1" d="M39.5,3.8c9.7,0,17.6,7.7,17.6,17.4c0,9.5-7.9,17.4-17.6,17.4c-9.5,0-17.4-7.9-17.4-17.4
						C22.1,11.5,30,3.8,39.5,3.8z"/>
					<path class="st1" d="M28.5,41v-0.7c-8.5,2-13.1,4.3-16.3,12.2c-3.4,6.5-9.5,43.1-9.5,43.1c-1.5,7.2,5.6,9.9,7,2.5l9.7-38.8
						c2.4,12.4,7.5,19.2,4.9,30.5c-1.5,0.2-1.9,2.7-1.9,5.4L5.2,131.6h18.2l-2.7,44c-0.5,10.8,8.5,11.5,9,1.1l6.6-45.2h2.9h0.2h0.2
						h0.2h2.9l6.6,45.2c0.5,10.4,9.5,9.7,8.7-1.1l-2.4-44h18.2L56.7,95.2c0-2.7-0.5-5.2-1.9-5.4c-2.7-11.3,2.4-18.1,4.9-30.5
						l9.7,38.8c1.5,7.4,8.5,4.7,7-2.5c0,0-6.1-36.6-9.5-43.1c-3.4-7.9-7.8-10.2-16.3-12.2V41 M50.6,43v0.5 M28.5,43.5V43 M39.4,93.1
						l-1.8-2.3l-5.6-7.1l1.2-8.8l3.1-22.9c1,0.4,2.1,0.6,3.2,0.6h0c0,0,0,0,0,0c1.1,0,2.1-0.2,3.2-0.6l3.1,23l1.2,8.7l-5.5,7
						L39.4,93.1 M36.4,41.1h3h3l1.5,5.9l-0.2,0.4c-1.2,1-2.7,1.5-4.3,1.5c-1.5,0-3-0.5-4.3-1.5L34.9,47L36.4,41.1z"/>
					<path class="st1" d="M30.7,48.3"/>
				</g>
			</g>
			<path class="st1" d="M10.6,152.9H2.4c-0.2,0-0.4-0.2-0.4-0.4l0-44.3c0-0.2,0.2-0.4,0.4-0.4h8.2c0.2,0,0.4,0.2,0.4,0.4l0,44.3
				C11,152.7,10.8,152.9,10.6,152.9z"/>
			<path class="st1" d="M8.5,112.3H4.4c-0.1,0-0.2-0.1-0.2-0.2l0-8.6c0-0.1,0.1-0.2,0.2-0.2h4.1c0.1,0,0.2,0.1,0.2,0.2l0,8.6
				C8.8,112.2,8.7,112.3,8.5,112.3z"/>
		</g>
	</g>
</g>
</svg>
